<?xml version="1.0" encoding="utf-8" ?>
<svg xmlns="http://www.w3.org/2000/svg" xmlns:cc="http://creativecommons.org/ns" xmlns:dc="http://purl.org/dc/elements/1.1/" xmlns:ev="http://www.w3.org/2001/xml-events" xmlns:inkscape="http://www.inkscape.org/namespaces/inkscape" xmlns:rdf="http://www.w3.org/1999/02/22-rdf-syntax-ns" xmlns:sodipodi="http://sodipodi.sourceforge.net/DTD/sodipodi-0.dtd" xmlns:xlink="http://www.w3.org/1999/xlink" baseProfile="tiny" height="12.0cm" version="1.2" viewBox="0 0 453.5433070866142 453.5433070866142" width="12.0cm">
  <metadata>
    <rdf:RDF>
      <cc:Work>
        <dc:format>image/svg+xml</dc:format>
        <dc:source>Generated with vsketch</dc:source>
        <dc:date>2025-03-27T21:05:38.056459</dc:date>
      </cc:Work>
    </rdf:RDF>
  </metadata>
  <defs/>
  <g fill="none" id="layer1" inkscape:groupmode="layer" inkscape:label="1" stroke="#0000ff" style="display:inline">
    <polyline points="108.8903,71.7065 112.3415,75.2441 115.3044,78.6923 117.8029,82.0495 119.8606,85.314 121.5011,88.4841 122.7483,91.558 123.6257,94.5341 124.1572,97.4106 124.3664,100.1858 124.277,102.858 123.9128,105.4256 123.2974,107.8867 122.4545,110.2397 121.4079,112.4829 120.1812,114.6145 118.7983,116.6329 117.2826,118.5363 115.6581,120.3231 113.9483,121.9915 113.9483,121.9915 112.175,123.3707 110.3405,124.3172 108.4395,124.8706 106.4668,125.0702 104.4172,124.9556 102.2853,124.5662 100.0659,123.9416 97.7538,123.1211 95.3438,122.1442 92.8304,121.0505 90.2086,119.8793 87.473,118.6702 84.6184,117.4626 81.6395,116.2959 78.5311,115.2097 75.2879,114.2434 71.9047,113.4365 68.3762,112.8284 64.6971,112.4587 64.6971,112.4587 60.8529,112.4456 56.8676,112.8364 52.7942,113.5635 48.6856,114.5598 44.5947,115.7577 40.5743,117.0899 36.6773,118.4891 32.9567,119.8879 29.4653,121.2188 26.2559,122.4146 23.3816,123.4078 20.8952,124.1311 18.8496,124.517 17.2976,124.4983 16.2922,124.0076 15.8862,122.9774 16.1326,121.3404 17.0842,119.0293 18.794,115.9766 18.794,115.9766 21.3908,112.3273 24.896,108.3008 29.2007,103.9416 34.1962,99.294 39.7738,94.4024 45.8245,89.3112 52.2398,84.0649 58.9107,78.7077 65.7286,73.2841 72.5847,67.8385 79.3701,62.4153 85.9762,57.0588 92.2942,51.8135 98.2153,46.7237 103.6306,41.8339 108.4316,37.1884 112.5094,32.8316 115.7551,28.808 118.0602,25.1618"/>
    <polyline points="19.0016,224.8639 20.9558,223.5355 24.3103,222.6328 28.8989,222.1276 34.5557,221.9913 41.1146,222.1955 48.4096,222.7118 56.2746,223.5118 64.5436,224.5671 73.0505,225.8492 81.6293,227.3298 90.1139,228.9804 98.3384,230.7726 106.1366,232.6779 113.3424,234.6681 119.79,236.7145 125.3131,238.7889 129.7459,240.8629 132.9221,242.9079 134.6758,244.8955 134.6758,244.8955 135.0177,247.0208 134.145,249.4539 132.1719,252.1291 129.2124,254.9806 125.3805,257.9428 120.7903,260.9501 115.5559,263.9366 109.7914,266.8368 103.6107,269.5849 97.1279,272.1153 90.4571,274.3623 83.7123,276.2602 77.0077,277.7432 70.4571,278.7458 64.1748,279.2021 58.2747,279.0467 52.871,278.2136 48.0776,276.6373 44.0086,274.2521 44.0086,274.2521 40.551,271.1176 37.5104,267.3799 34.8786,263.1031 32.6475,258.3514 30.809,253.1888 29.3549,247.6794 28.2771,241.8874 27.5675,235.8768 27.2179,229.7118 27.2201,223.4564 27.5662,217.1748 28.2479,210.931 29.257,204.7892 30.5855,198.8134 32.2253,193.0677 34.1681,187.6164 36.4059,182.5233 38.9306,177.8527 41.7339,173.6687 41.7339,173.6687 44.9009,170.0653 48.4842,167.0702 52.4275,164.6482 56.6745,162.7638 61.1687,161.3816 65.8539,160.4664 70.6736,159.9826 75.5715,159.895 80.4912,160.1682 85.3763,160.7668 90.1706,161.6554 94.8175,162.7987 99.2608,164.1612 103.4441,165.7077 107.311,167.4027 110.8052,169.211 113.8703,171.097 116.4499,173.0255 118.4877,174.961"/>
    <polyline points="94.0074,375.0986 98.0216,373.8644 101.6532,372.4044 104.9292,370.7634 107.8767,368.9861 110.5226,367.1171 112.8941,365.2013 115.0182,363.2833 116.9219,361.4078 118.6323,359.6195 120.1764,357.9631 121.5813,356.4834 122.874,355.225 124.0816,354.2327 125.231,353.5511 126.3495,353.225 127.4639,353.2991 128.6014,353.818 129.789,354.8265 131.0537,356.3694 131.0537,356.3694 132.4128,358.59 133.8376,361.533 135.2857,365.0942 136.7151,369.1697 138.0837,373.6556 139.3493,378.448 140.4697,383.4428 141.4029,388.536 142.1066,393.6238 142.5387,398.6022 142.6571,403.3671 142.4196,407.8147 141.784,411.841 140.7084,415.342 139.1504,418.2137 137.0679,420.3522 134.4189,421.6535 131.1611,422.0137 127.2524,421.3288 127.2524,421.3288 122.6394,419.6513 117.3638,417.155 111.5257,413.9176 105.2254,410.0172 98.5632,405.5316 91.6394,400.5386 84.5541,395.1163 77.4076,389.3423 70.3003,383.2948 63.3323,377.0514 56.6039,370.6902 50.2153,364.2889 44.2669,357.9256 38.8588,351.678 34.0914,345.6241 30.0648,339.8417 26.8793,334.4088 24.6352,329.4032 23.4327,324.9028 23.4327,324.9028 23.4476,320.838 24.7027,317.0955 27.0691,313.6871 30.4177,310.6248 34.6198,307.9207 39.5461,305.5867 45.068,303.6348 51.0562,302.0769 57.382,300.9251 63.9163,300.1913 70.5302,299.8876 77.0947,300.0258 83.4808,300.618 89.5597,301.6761 95.2023,303.2122 100.2796,305.2382 104.6628,307.7661 108.2228,310.8079 110.8307,314.3755 110.8307,314.3755 112.6031,318.4514 113.7673,322.9778 114.3602,327.9063 114.4188,333.1887 113.9802,338.7767 113.0813,344.6219 111.7592,350.6761 110.0509,356.891 107.9933,363.2182 105.6235,369.6095 102.9785,376.0166 100.0953,382.3911 97.0108,388.6848 93.7622,394.8494 90.3863,400.8366 86.9202,406.598 83.4009,412.0854 79.8655,417.2505 76.3508,422.0449 76.3508,422.0449 72.8146,426.3905 69.2073,430.2477 65.555,433.6264 61.8839,436.5367 58.2202,438.9884 54.5902,440.9916 51.0199,442.556 47.5355,443.6918 44.1633,444.4088 40.9294,444.7169 37.86,444.6262 34.9813,444.1464 32.3195,443.2877 29.9007,442.0599 27.7512,440.4729 25.897,438.5367 24.3645,436.2613 23.1797,433.6566 22.3689,430.7325"/>
    <polyline points="175.2561,115.0034 175.0502,110.2625 175.3865,105.0623 176.2166,99.473 177.4917,93.5645 179.1633,87.4071 181.1828,81.0709 183.5016,74.6259 186.0711,68.1423 188.8427,61.6902 191.7677,55.3397 194.7977,49.1609 197.8839,43.2239 200.9778,37.599 204.0308,32.356 206.9942,27.5653 209.8196,23.2968 212.4582,19.6208 214.8615,16.6073 216.9809,14.3264 216.9809,14.3264 218.6854,12.9536 219.9153,12.5572 220.7292,13.0462 221.1856,14.3296 221.3431,16.3166 221.2602,18.9162 220.9955,22.0376 220.6074,25.5897 220.1546,29.4817 219.6955,33.6227 219.2886,37.9217 218.9926,42.2879 218.866,46.6302 218.9672,50.8578 219.3549,54.8798 220.0876,58.6052 221.2237,61.9432 222.8219,64.8027 224.9407,67.0929 224.9407,67.0929 227.4263,68.939 230.071,70.5306 232.8526,71.8737 235.7486,72.9741 238.7368,73.8377 241.7948,74.4705 244.9003,74.8782 248.031,75.0669 251.1646,75.0423 254.2786,74.8105 257.3509,74.3772 260.359,73.7483 263.2807,72.9299 266.0936,71.9277 268.7754,70.7476 271.3037,69.3955 273.6563,67.8774 275.8108,66.1991 277.7448,64.3665 277.7448,64.3665 279.3243,62.2013 280.4574,59.5726 281.1848,56.5576 281.5473,53.2335 281.5857,49.6774 281.341,45.9666 280.8538,42.1783 280.165,38.3895 279.3154,34.6776 278.3459,31.1197 277.2972,27.7929 276.2101,24.7745 275.1256,22.1416 274.0843,19.9714 273.1272,18.3412 272.2949,17.328 271.6284,17.0091 271.1685,17.4617 270.956,18.7629 270.956,18.7629 271.1205,21.0178 271.7153,24.2032 272.6663,28.2034 273.8993,32.9029 275.3402,38.1861 276.9149,43.9375 278.5493,50.0415 280.1692,56.3826 281.7006,62.8451 283.0693,69.3137 284.2012,75.6726 285.0222,81.8063 285.4582,87.5994 285.435,92.9361 284.8786,97.701 283.7148,101.7785 281.8695,105.0531 279.2685,107.4091 275.8379,108.7311"/>
    <polyline points="194.8888,169.5454 197.965,169.5208 201.6313,170.8269 205.8075,173.3245 210.4134,176.8742 215.3688,181.3365 220.5934,186.572 226.0071,192.4413 231.5296,198.8051 237.0806,205.5239 242.58,212.4584 247.9476,219.4691 253.1031,226.4166 257.9663,233.1616 262.457,239.5646 266.495,245.4862 270.0,250.7871 272.8919,255.3278 275.0904,258.9689 276.5152,261.5711 276.5152,261.5711 276.9811,263.2311 276.4311,264.1736 274.9775,264.4509 272.7327,264.1154 269.809,263.2195 266.3187,261.8153 262.3743,259.9553 258.0881,257.6918 253.5723,255.0771 248.9394,252.1636 244.3017,249.0036 239.7715,245.6494 235.4612,242.1534 231.4832,238.5679 227.9498,234.9452 224.9733,231.3378 222.6661,227.7978 221.1405,224.3776 220.5089,221.1296 220.5089,221.1296 220.9048,217.9797 222.3001,214.8325 224.5647,211.709 227.5683,208.6299 231.1808,205.6159 235.272,202.688 239.7117,199.8669 244.3697,197.1734 249.1159,194.6282 253.8201,192.2522 258.3521,190.0661 262.5816,188.0909 266.3786,186.3471 269.6129,184.8557 272.1542,183.6375 273.8725,182.7131 274.6374,182.1035 274.3189,181.8294 272.7868,181.9116"/>
    <polyline points="272.2008,432.3633 269.7538,434.0876 266.478,435.8616 262.483,437.644 257.8783,439.3934 252.7736,441.0684 247.2784,442.6277 241.5021,444.0298 235.5545,445.2333 229.545,446.197 223.5832,446.8795 217.7786,447.2393 212.2408,447.2351 207.0793,446.8255 202.4038,445.9692 198.3237,444.6248 194.9486,442.7508 192.3881,440.306 190.7517,437.249 190.1489,433.5383 190.1489,433.5383 190.8055,429.1274 192.7672,424.0609 195.8744,418.4336 199.9672,412.3408 204.8858,405.8775 210.4703,399.1387 216.5609,392.2196 222.9979,385.2153 229.6213,378.2207 236.2713,371.331 242.7882,364.6412 249.0121,358.2465 254.7831,352.2419 259.9415,346.7225 264.3275,341.7833 267.7811,337.5195 270.1426,334.0261 271.2522,331.3981 270.95,329.7308 270.95,329.7308 269.2353,329.2966 266.3055,330.2039 262.2974,332.3014 257.3479,335.4378 251.594,339.4618 245.1726,344.2221 238.2207,349.5675 230.8752,355.3465 223.273,361.4079 215.5511,367.6005 207.8464,373.7728 200.2959,379.7736 193.0364,385.4517 186.205,390.6556 179.9385,395.2342 174.3739,399.036 169.6481,401.9099 165.8981,403.7045 163.2608,404.2684 163.2608,404.2684 161.8632,403.7019 161.6576,402.2627 162.5191,400.0365 164.3225,397.1087 166.9429,393.5648 170.2552,389.4904 174.1343,384.971 178.4553,380.0921 183.0931,374.9391 187.9227,369.5977 192.8191,364.1533 197.6571,358.6914 202.3119,353.2976 206.6583,348.0574 210.5713,343.0563 213.9259,338.3797 216.5971,334.1132 218.4597,330.3424 219.3889,327.1527 219.3889,327.1527 219.4352,324.5112 218.7829,322.3133 217.5076,320.5371 215.6845,319.1605 213.3892,318.1617 210.6971,317.5187 207.6836,317.2095 204.4243,317.2121 200.9945,317.5047 197.4697,318.0653 193.9253,318.8718 190.4368,319.9024 187.0796,321.1351 183.9293,322.548 181.0611,324.119 178.5506,325.8263 176.4731,327.6478 174.9043,329.5617 173.9194,331.5459 173.9194,331.5459 173.3365,333.6423 172.9298,335.8939 172.7092,338.2802 172.6843,340.7808 172.8651,343.3753 173.2613,346.0433 173.8827,348.7643 174.7391,351.518 175.8403,354.2839 177.1962,357.0416 178.8164,359.7708 180.7109,362.451 182.8894,365.0617 185.3616,367.5826 188.1375,369.9933 191.2268,372.2734 194.6394,374.4023 198.3849,376.3598 202.4732,378.1254"/>
    <polyline points="327.7682,118.8303 325.8955,116.3845 324.8659,113.6791 324.6164,110.7333 325.0837,107.566 326.2048,104.1964 327.9165,100.6434 330.1556,96.9263 332.8591,93.064 335.9638,89.0757 339.4065,84.9803 343.1241,80.7971 347.0536,76.545 351.1316,72.2431 355.2952,67.9105 359.4811,63.5663 363.6263,59.2296 367.6676,54.9193 371.5418,50.6547 375.1858,46.4547 375.1858,46.4547 378.6364,42.2945 381.9695,38.1647 385.1811,34.1074 388.267,30.1646 391.2229,26.3785 394.0448,22.7912 396.7284,19.4449 399.2697,16.3816 401.6644,13.6434 403.9084,11.2725 405.9975,9.311 407.9275,7.801 409.6943,6.7846 411.2938,6.304 412.7217,6.4012 413.9739,7.1184 415.0462,8.4976 415.9345,10.581 416.6346,13.4108 416.6346,13.4108 417.021,17.0718 416.996,21.5552 416.5979,26.7622 415.8645,32.5943 414.834,38.9525 413.5444,45.7384 412.0336,52.853 410.3398,60.1978 408.501,67.6741 406.5552,75.1831 404.5404,82.6261 402.4946,89.9044 400.456,96.9193 398.4625,103.5722 396.5521,109.7642 394.7629,115.3967 393.133,120.3711 391.7003,124.5885 390.5029,127.9503 390.5029,127.9503 389.6438,130.4453 389.1666,132.1592 389.0197,133.1385 389.1517,133.4299 389.5112,133.0798 390.0465,132.1349 390.7064,130.6416 391.4393,128.6466 392.1937,126.1965 392.9182,123.3378 393.5614,120.117 394.0717,116.5807 394.3977,112.7756 394.488,108.748 394.291,104.5447 393.7554,100.2122 392.8296,95.7971 391.4621,91.3458 389.6016,86.905 389.6016,86.905 387.1896,82.4418 384.258,77.9098 380.8913,73.3354 377.1739,68.7452 373.1901,64.1656 369.0243,59.623 364.7608,55.1438 360.484,50.7547 356.2783,46.4819 352.228,42.352 348.4175,38.3914 344.9312,34.6265 341.8533,31.0839 339.2684,27.79 337.2607,24.7712 335.9146,22.054 335.3144,19.6648 335.5446,17.6301 336.6895,15.9764 336.6895,15.9764 338.9328,14.8478 342.3048,14.3364 346.6594,14.3905 351.8508,14.9587 357.7331,15.9891 364.1603,17.4304 370.9865,19.2307 378.0657,21.3386 385.2521,23.7023 392.3996,26.2704 399.3625,28.9911 405.9947,31.8129 412.1503,34.6842 417.6834,37.5532 422.4481,40.3685 426.2984,43.0785 429.0884,45.6314 430.6722,47.9757 430.9038,50.0598"/>
    <polyline points="344.4115,234.9778 346.0113,231.0793 347.7232,227.2619 349.5192,223.5281 351.371,219.8805 353.2502,216.3217 355.1288,212.8545 356.9785,209.4815 358.771,206.2053 360.4782,203.0285 362.0717,199.9538 363.5234,196.9838 364.805,194.1212 365.8883,191.3686 366.7451,188.7286 367.3472,186.2039 367.6663,183.7971 367.6741,181.5109 367.3425,179.3478 366.6432,177.3107 366.6432,177.3107 365.3665,175.5822 363.3895,174.3169 360.8146,173.4748 357.7441,173.0161 354.2804,172.9008 350.5258,173.089 346.5825,173.5408 342.5531,174.2161 338.5396,175.0752 334.6446,176.078 330.9703,177.1847 327.619,178.3553 324.6931,179.5499 322.2949,180.7285 320.5267,181.8513 319.4909,182.8783 319.2897,183.7696 320.0256,184.4852 321.8008,184.9853 321.8008,184.9853 324.5284,185.2097 328.0016,185.156 332.1423,184.8709 336.8727,184.401 342.115,183.793 347.7912,183.0936 353.8236,182.3494 360.1342,181.607 366.6451,180.9133 373.2786,180.3147 379.9567,179.858 386.6016,179.5899 393.1353,179.5569 399.4801,179.8058 405.5581,180.3832 411.2913,181.3358 416.6019,182.7102 421.4121,184.5532 425.644,186.9113 425.644,186.9113 429.1986,189.6029 432.0609,192.4109 434.2786,195.3289 435.8993,198.3502 436.9708,201.4684 437.5408,204.6769 437.6571,207.9693 437.3672,211.339 436.719,214.7794 435.7602,218.2842 434.5384,221.8467 433.1015,225.4604 431.497,229.1188 429.7728,232.8154 427.9765,236.5437 426.1558,240.2971 424.3586,244.0692 422.6324,247.8534 421.025,251.6431"/>
    <polyline points="368.7467,419.6913 371.737,419.4505 374.6749,418.4715 377.5581,416.8443 380.3844,414.6588 383.1513,412.005 385.8565,408.9726 388.4976,405.6516 391.0723,402.1319 393.5783,398.5035 396.0131,394.8562 398.3745,391.2799 400.66,387.8645 402.8674,384.7 404.9942,381.8763 407.0382,379.4832 408.9969,377.6106 410.8681,376.3486 412.6493,375.7869 414.3382,376.0155 414.3382,376.0155 415.7747,377.1879 416.8243,379.3122 417.5228,382.2593 417.9065,385.9007 418.0111,390.1074 417.8728,394.7507 417.5275,399.7019 417.0113,404.8321 416.3601,410.0126 415.6099,415.1146 414.7967,420.0093 413.9565,424.568 413.1254,428.6618 412.3393,432.162 411.6342,434.9399 411.0461,436.8665 410.611,437.8132 410.365,437.6512 410.3439,436.2517 410.3439,436.2517 410.6613,433.5172 411.3618,429.5405 412.3784,424.4785 413.6441,418.488 415.0919,411.7256 416.6548,404.3481 418.2658,396.5124 419.8578,388.3751 421.364,380.093 422.7173,371.823 423.8506,363.7216 424.697,355.9459 425.1894,348.6524 425.2609,341.9979 424.8445,336.1393 423.8731,331.2333 422.2797,327.4366 419.9974,324.906 416.9591,323.7982 416.9591,323.7982 413.1988,324.2877 408.849,326.3268 403.9908,329.7396 398.7052,334.3501 393.0733,339.9822 387.176,346.4599 381.0944,353.6072 374.9095,361.2481 368.7024,369.2066 362.554,377.3067 356.5454,385.3723 350.7577,393.2275 345.2718,400.6962 340.1687,407.6024 335.5296,413.7701 331.4354,419.0234 327.9671,423.1861 325.2058,426.0823 323.2326,427.5359 323.2326,427.5359 322.259,427.6553 322.3661,426.7279 323.4383,424.8467 325.3601,422.1047 328.0161,418.5947 331.2908,414.4097 335.0688,409.6426 339.2346,404.3864 343.6728,398.7341 348.268,392.7784 352.9045,386.6125 357.4671,380.3291 361.8402,374.0213 365.9084,367.782 369.5563,361.7041 372.6683,355.8806 375.1291,350.4044 376.8231,345.3684 377.6349,340.8655 377.6349,340.8655 377.4485,336.7889 376.3079,332.9778 374.3377,329.445 371.6624,326.203 368.4067,323.2642 364.6951,320.6414 360.6522,318.3469 356.4027,316.3935 352.0711,314.7936 347.7819,313.5598 343.6599,312.7046 339.8295,312.2407 336.4154,312.1805 333.5422,312.5367 331.3344,313.3217 329.9166,314.5482 329.4135,316.2287 329.9495,318.3758 331.6494,321.0019"/>
  </g>
</svg>
