<?xml version="1.0" encoding="utf-8" ?>
<svg xmlns="http://www.w3.org/2000/svg" xmlns:cc="http://creativecommons.org/ns" xmlns:dc="http://purl.org/dc/elements/1.1/" xmlns:ev="http://www.w3.org/2001/xml-events" xmlns:inkscape="http://www.inkscape.org/namespaces/inkscape" xmlns:rdf="http://www.w3.org/1999/02/22-rdf-syntax-ns" xmlns:sodipodi="http://sodipodi.sourceforge.net/DTD/sodipodi-0.dtd" xmlns:xlink="http://www.w3.org/1999/xlink" baseProfile="tiny" height="10.0cm" version="1.2" viewBox="0 0 377.9527559055118 377.9527559055118" width="10.0cm">
  <metadata>
    <rdf:RDF>
      <cc:Work>
        <dc:format>image/svg+xml</dc:format>
        <dc:source>Generated with vsketch</dc:source>
        <dc:date>2025-03-27T20:58:54.791997</dc:date>
      </cc:Work>
    </rdf:RDF>
  </metadata>
  <defs/>
  <g fill="none" id="layer1" inkscape:groupmode="layer" inkscape:label="1" stroke="#0000ff" style="display:inline">
    <polygon points="50.3937,32.5459 50.3937,32.5459 50.3937,32.5459 50.3937,32.5459 50.3937,32.5459 50.3937,32.5459 50.3937,32.5459 50.3937,32.5459 50.3937,32.5459 50.3937,32.5459 50.3937,32.5459 50.7048,32.5459 51.4825,32.5459 52.4934,32.5459 53.5044,32.5459 54.2821,32.5459 54.5932,32.5459 54.2043,32.5459 52.8823,32.5459 50.3937,32.5459 50.3937,32.5459 46.9201,32.5459 42.902,32.5459 38.4952,32.5459 33.855,32.5459 29.1371,32.5459 24.4969,32.5459 20.0901,32.5459 16.0721,32.5459 12.5984,32.5459 12.5984,32.5459 9.7988,32.5459 7.699,32.5459 6.2992,32.5459 5.5993,32.5459 5.5993,32.5459 6.2992,32.5459 7.699,32.5459 9.7988,32.5459 12.5984,32.5459 12.5984,32.5459 16.3831,32.5459 21.1788,32.5459 26.5967,32.5459 32.2478,32.5459 37.7434,32.5459 42.6947,32.5459 46.7127,32.5459 49.4086,32.5459 50.3937,32.5459 50.3937,32.5459 49.4086,32.3904 46.7127,32.0016 42.6947,31.4961 37.7434,30.9906 32.2478,30.6017 26.5967,30.4462 21.1788,30.6406 16.3831,31.3016 12.5984,32.5459 12.5984,32.5459 9.7988,34.5938 7.699,37.3805 6.2992,40.5949 5.5993,43.926 5.5993,47.0626 6.2992,49.6938 7.699,51.5084 9.7988,52.1953 12.5984,51.4436 12.5984,51.4436 16.2276,49.0587 20.6345,45.3129 25.5468,40.5949 30.6925,35.2937 35.7992,29.7981 40.5949,24.4969 44.8074,19.779 48.1643,16.0332 50.3937,13.6483 50.3937,13.6483 50.9899,12.8965 49.9141,13.5835 47.5941,15.3981 44.4574,18.0292 40.9319,21.1659 37.4453,24.4969 34.4253,27.7114 32.2997,30.498 31.4961,32.5459 31.4961,32.5459 31.9886,33.7902 33.3366,34.4512 35.3456,34.6457 37.8212,34.4901 40.569,34.1013 43.3946,33.5958 46.1035,33.0903 48.5013,32.7015"/>
    <polyline points="31.4961,202.6247 29.4482,202.6247 26.6615,202.6247 23.4471,202.6247 20.116,202.6247 16.9794,202.6247 14.3482,202.6247 12.5336,202.6247 11.8467,202.6247 12.5984,202.6247 12.5984,202.6247 15.1388,202.6247 19.2735,202.6247 24.4969,202.6247 30.3036,202.6247 36.1881,202.6247 41.6448,202.6247 46.1683,202.6247 49.2531,202.6247 50.3937,202.6247 50.3937,202.6247 49.0976,202.6247 45.6239,202.6247 40.5949,202.6247 34.6327,202.6247 28.3594,202.6247 22.3972,202.6247 17.3682,202.6247 13.8946,202.6247 12.5984,202.6247 12.5984,202.6247 13.8946,202.4691 17.3682,202.0803 22.3972,201.5748 28.3594,201.0693 34.6327,200.6805 40.5949,200.5249 45.6239,200.7194 49.0976,201.3804 50.3937,202.6247 50.3937,202.6247 49.0976,204.3615 45.6239,206.3705 40.5949,208.5739 34.6327,210.894 28.3594,213.253 22.3972,215.5731 17.3682,217.7765 13.8946,219.7855 12.5984,221.5223 12.5984,221.5223 13.8946,222.7666 17.3682,223.4276 22.3972,223.622 28.3594,223.4665 34.6327,223.0777 40.5949,222.5722 45.6239,222.0667 49.0976,221.6778 50.3937,221.5223 50.3937,221.5223 49.4086,221.5223 46.7127,221.5223 42.6947,221.5223 37.7434,221.5223 32.2478,221.5223 26.5967,221.5223 21.1788,221.5223 16.3831,221.5223 12.5984,221.5223"/>
    <polyline points="75.5906,13.6483 79.0642,13.3372 83.0822,12.5595 87.4891,11.5486 92.1292,10.5376 96.8472,9.7599 101.4873,9.4488 105.8942,9.8377 109.9122,11.1597 113.3858,13.6483 113.3858,13.6483 115.8744,17.2775 117.1965,21.6843 117.5853,26.5967 117.2742,31.7423 116.4965,36.8491 115.4856,41.6448 114.4746,45.8572 113.6969,49.2142 113.3858,51.4436 113.3858,51.4436 113.3858,52.0398 113.3858,50.964 113.3858,48.6439 113.3858,45.5073 113.3858,41.9818 113.3858,38.4952 113.3858,35.4752 113.3858,33.3495 113.3858,32.5459 113.3858,32.5459 113.3858,33.3495 113.3858,35.4752 113.3858,38.4952 113.3858,41.9818 113.3858,45.5073 113.3858,48.6439 113.3858,50.964 113.3858,52.0398 113.3858,51.4436 113.3858,51.4436 113.5414,48.9031 113.9302,44.7685 114.4357,39.5451 114.9412,33.7384 115.33,27.8539 115.4856,22.3972 115.2911,17.8737 114.6301,14.7889 113.3858,13.6483 113.3858,13.6483 111.8045,14.6334 110.1844,17.3293 108.4864,21.3473 106.6719,26.2986 104.7017,31.7942 102.5372,37.4453 100.1393,42.8632 97.4693,47.6589 94.4882,51.4436 94.4882,51.4436 91.5071,53.9321 88.837,55.2542 86.4392,55.643 84.2747,55.332 82.3045,54.5543 80.4899,53.5433 78.792,52.5323 77.1718,51.7546 75.5906,51.4436 75.5906,51.4436 74.3463,51.4436 73.6852,51.4436 73.4908,51.4436 73.6463,51.4436 74.0352,51.4436 74.5407,51.4436 75.0462,51.4436 75.435,51.4436 75.5906,51.4436"/>
    <polyline points="113.3858,158.5302 113.6969,158.3746 114.4746,157.9858 115.4856,157.4803 116.4965,156.9748 117.2742,156.586 117.5853,156.4304 117.1965,156.6249 115.8744,157.2859 113.3858,158.5302 113.3858,158.5302 109.6011,160.4225 104.8054,162.8204 99.3876,165.5293 93.7364,168.3549 88.2408,171.1027 83.2896,173.5783 79.2716,175.5873 76.5756,176.9353 75.5906,177.4278 75.5906,177.4278 76.8867,176.7798 80.3603,175.0429 85.3893,172.5284 91.3515,169.5473 97.6248,166.4107 103.5871,163.4296 108.6161,160.9151 112.0897,159.1783 113.3858,158.5302 113.3858,158.5302 112.2452,159.1783 109.1604,160.9151 104.6369,163.4296 99.1802,166.4107 93.2957,169.5473 87.4891,172.5284 82.2656,175.0429 78.131,176.7798 75.5906,177.4278 75.5906,177.4278 74.6833,176.7798 74.9814,175.0429 76.2905,172.5284 78.4161,169.5473 81.1639,166.4107 84.3395,163.4296 87.7483,160.9151 91.196,159.1783 94.4882,158.5302 94.4882,158.5302 97.6248,159.0227 100.6837,160.3707 103.5871,162.3797 106.2571,164.8553 108.6161,167.6031 110.5862,170.4287 112.0897,173.1376 113.0488,175.5355 113.3858,177.4278 113.3858,177.4278 112.8933,178.6721 111.5453,179.3331 109.5363,179.5276 107.0607,179.372 104.3129,178.9832 101.4873,178.4777 98.7784,177.9722 96.3805,177.5834 94.4882,177.4278"/>
    <polyline points="94.4882,221.5223 96.5361,223.2591 99.3228,225.2681 102.5372,227.4716 105.8682,229.7916 109.0049,232.1506 111.636,234.4707 113.4506,236.6741 114.1376,238.6831 113.3858,240.4199 113.3858,240.4199 111.0009,241.8198 107.2551,242.8696 102.5372,243.5696 97.236,243.9195 91.7404,243.9195 86.4392,243.5696 81.7213,242.8696 77.9754,241.8198 75.5906,240.4199 75.5906,240.4199 74.9943,238.8387 76.0701,237.2185 78.3902,235.5206 81.5268,233.706 85.0523,231.7358 88.5389,229.5713 91.5589,227.1735 93.6846,224.5034 94.4882,221.5223 94.4882,221.5223 93.9957,218.5412 92.6477,215.8712 90.6387,213.4733 88.1631,211.3088 85.4152,209.3386 82.5897,207.5241 79.8808,205.8261 77.4829,204.206 75.5906,202.6247 75.5906,202.6247 74.3463,201.3804 73.6852,200.7194 73.4908,200.5249 73.6463,200.6805 74.0352,201.0693 74.5407,201.5748 75.0462,202.0803 75.435,202.4691 75.5906,202.6247"/>
    <polyline points="75.5906,366.4042 77.4829,366.4042 79.8808,366.4042 82.5897,366.4042 85.4152,366.4042 88.1631,366.4042 90.6387,366.4042 92.6477,366.4042 93.9957,366.4042 94.4882,366.4042 94.4882,366.4042 93.8401,366.4042 92.1033,366.4042 89.5888,366.4042 86.6077,366.4042 83.471,366.4042 80.4899,366.4042 77.9754,366.4042 76.2386,366.4042 75.5906,366.4042 75.5906,366.4042 75.9275,366.4042 76.8867,366.4042 78.3902,366.4042 80.3603,366.4042 82.7193,366.4042 85.3893,366.4042 88.2927,366.4042 91.3515,366.4042 94.4882,366.4042 94.4882,366.4042 97.4693,366.5597 100.1393,366.9486 102.5372,367.4541 104.7017,367.9596 106.6719,368.3484 108.4864,368.5039 110.1844,368.3095 111.8045,367.6485 113.3858,366.4042 113.3858,366.4042 114.7857,364.6674 115.8355,362.6584 116.5354,360.4549 116.8854,358.1349 116.8854,355.7759 116.5354,353.4558 115.8355,351.2524 114.7857,349.2434 113.3858,347.5066 113.3858,347.5066 111.649,346.2623 109.64,345.6012 107.4366,345.4068 105.1165,345.5624 102.7575,345.9512 100.4374,346.4567 98.234,346.9622 96.225,347.351 94.4882,347.5066"/>
    <polygon points="138.5827,221.5223 138.5827,219.63 138.5827,217.2321 138.5827,214.5232 138.5827,211.6976 138.5827,208.9498 138.5827,206.4742 138.5827,204.4652 138.5827,203.1172 138.5827,202.6247 138.5827,202.6247 138.2716,203.2727 137.4939,205.0096 136.4829,207.5241 135.472,210.5052 134.6943,213.6418 134.3832,216.6229 134.772,219.1374 136.0941,220.8742 138.5827,221.5223 138.5827,221.5223 142.3674,220.7187 147.1631,218.593 152.5809,215.5731 158.2321,212.0865 163.7277,208.561 168.6789,205.4243 172.6969,203.1042 175.3929,202.0285 176.378,202.6247 176.378,202.6247 175.0818,204.854 171.6082,208.211 166.5792,212.4234 160.617,217.2191 154.3437,222.3259 148.3815,227.4716 143.3525,232.3839 139.8788,236.7908 138.5827,240.4199 138.5827,240.4199 139.5677,243.0641 142.2637,244.775 146.2817,245.6693 151.2329,245.8637 156.7286,245.4749 162.3797,244.6194 167.7975,243.414 172.5932,241.9753 176.378,240.4199 176.378,240.4199 179.1776,238.5276 181.2773,236.1297 182.6772,233.4208 183.3771,230.5952 183.3771,227.8474 182.6772,225.3718 181.2773,223.3628 179.1776,222.0148 176.378,221.5223 176.378,221.5223 172.9043,222.1704 168.8863,223.9072 164.4794,226.4217 159.8393,229.4028 155.1214,232.5395 150.4812,235.5206 146.0743,238.0351 142.0563,239.7719 138.5827,240.4199 138.5827,240.4199 136.0941,239.9274 134.772,238.5794 134.3832,236.5704 134.6943,234.0948 135.472,231.347 136.4829,228.5214 137.4939,225.8125 138.2716,223.4147"/>
    <polyline points="302.3622,202.6247 298.5775,204.206 293.7818,205.8261 288.364,207.5241 282.7128,209.3386 277.2172,211.3088 272.266,213.4733 268.248,215.8712 265.552,218.5412 264.5669,221.5223 264.5669,221.5223 265.552,224.8145 268.248,228.2622 272.266,231.671 277.2172,234.8466 282.7128,237.5944 288.364,239.72 293.7818,241.0291 298.5775,241.3272 302.3622,240.4199 302.3622,240.4199 305.0063,238.1906 306.7172,234.8336 307.6115,230.6212 307.806,225.8255 307.4171,220.7187 306.5617,215.5731 305.3563,210.6607 303.9176,206.2538 302.3622,202.6247 302.3622,202.6247 300.6254,200.1361 298.6164,198.814 296.4129,198.4252 294.0929,198.7363 291.7339,199.5139 289.4138,200.5249 287.2104,201.5359 285.2014,202.3136 283.4646,202.6247"/>
  </g>
  <g fill="none" id="layer2" inkscape:groupmode="layer" inkscape:label="2" stroke="#008800" style="display:inline">
    <polyline points="12.5984,95.5381 16.2276,95.3825 20.6345,94.9937 25.5468,94.4882 30.6925,93.9827 35.7992,93.5939 40.5949,93.4383 44.8074,93.6327 48.1643,94.2938 50.3937,95.5381 50.3937,95.5381 51.1455,97.5859 50.4585,100.3726 48.6439,103.5871 46.0128,106.9181 42.8761,110.0548 39.5451,112.6859 36.3306,114.5005 33.544,115.1875 31.4961,114.4357 31.4961,114.4357 30.4073,111.8953 30.1351,107.7606 30.4462,102.5372 31.1072,96.7305 31.8849,90.8461 32.5459,85.3893 32.857,80.8658 32.5848,77.781 31.4961,76.6404 31.4961,76.6404 29.4482,77.6255 26.6615,80.3214 23.4471,84.3395 20.116,89.2907 16.9794,94.7863 14.3482,100.4374 12.5336,105.8553 11.8467,110.651 12.5984,114.4357 12.5984,114.4357 14.8278,116.9243 18.1848,118.2463 22.3972,118.6352 27.1929,118.3241 32.2997,117.5464 37.4453,116.5354 42.3577,115.5244 46.7645,114.7468 50.3937,114.4357 50.3937,114.4357 53.0378,114.4357 54.7487,114.4357 55.643,114.4357 55.8375,114.4357 55.4486,114.4357 54.5932,114.4357 53.3878,114.4357 51.9491,114.4357 50.3937,114.4357 50.3937,114.4357 48.6569,114.4357 46.6479,114.4357 44.4444,114.4357 42.1244,114.4357 39.7654,114.4357 37.4453,114.4357 35.2419,114.4357 33.2329,114.4357 31.4961,114.4357"/>
    <polyline points="94.4882,265.6168 96.225,269.0904 98.234,273.1085 100.4374,277.5153 102.7575,282.1555 105.1165,286.8734 107.4366,291.5136 109.64,295.9204 111.649,299.9384 113.3858,303.4121 113.3858,303.4121 114.7857,306.2117 115.8355,308.3115 116.5354,309.7113 116.8854,310.4112 116.8854,310.4112 116.5354,309.7113 115.8355,308.3115 114.7857,306.2117 113.3858,303.4121 113.3858,303.4121 111.649,299.9384 109.64,295.9204 107.4366,291.5136 105.1165,286.8734 102.7575,282.1555 100.4374,277.5153 98.234,273.1085 96.225,269.0904 94.4882,265.6168 94.4882,265.6168 93.2439,262.8171 92.5829,260.7174 92.3885,259.3176 92.544,258.6177 92.9328,258.6177 93.4383,259.3176 93.9438,260.7174 94.3327,262.8171 94.4882,265.6168 94.4882,265.6168 94.3327,269.0904 93.9438,273.1085 93.4383,277.5153 92.9328,282.1555 92.544,286.8734 92.3885,291.5136 92.5829,295.9204 93.2439,299.9384 94.4882,303.4121 94.4882,303.4121 96.5361,306.2117 99.3228,308.3115 102.5372,309.7113 105.8682,310.4112 109.0049,310.4112 111.636,309.7113 113.4506,308.3115 114.1376,306.2117 113.3858,303.4121 113.3858,303.4121 111.0009,299.6274 107.2551,294.8317 102.5372,289.4138 97.236,283.7627 91.7404,278.2671 86.4392,273.3158 81.7213,269.2978 77.9754,266.6019 75.5906,265.6168 75.5906,265.6168 74.8388,266.6019 75.5257,269.2978 77.3403,273.3158 79.9715,278.2671 83.1081,283.7627 86.4392,289.4138 89.6536,294.8317 92.4403,299.6274 94.4882,303.4121"/>
    <polyline points="176.378,13.6483 174.4856,15.3851 172.0877,17.3941 169.3788,19.5976 166.5533,21.9176 163.8055,24.2766 161.3298,26.5967 159.3208,28.8001 157.9728,30.8091 157.4803,32.5459 157.4803,32.5459 158.2839,33.6347 160.4096,33.9069 163.4296,33.5958 166.9162,32.9348 170.4417,32.1571 173.5783,31.4961 175.8984,31.185 176.9742,31.4572 176.378,32.5459 176.378,32.5459 173.8375,34.5938 169.7029,37.3805 164.4794,40.5949 158.6728,43.926 152.7883,47.0626 147.3316,49.6938 142.8081,51.5084 139.7233,52.1953 138.5827,51.4436 138.5827,51.4436 139.7233,49.0587 142.8081,45.3129 147.3316,40.5949 152.7883,35.2937 158.6728,29.7981 164.4794,24.4969 169.7029,19.779 173.8375,16.0332 176.378,13.6483 176.378,13.6483 177.1297,12.8965 176.4428,13.5835 174.6282,15.3981 171.997,18.0292 168.8604,21.1659 165.5293,24.4969 162.3149,27.7114 159.5282,30.498 157.4803,32.5459"/>
    <polyline points="138.5827,114.4357 140.475,110.9621 142.8729,106.944 145.5818,102.5372 148.4074,97.897 151.1552,93.1791 153.6308,88.5389 155.6398,84.1321 156.9878,80.1141 157.4803,76.6404 157.4803,76.6404 156.6767,74.1518 154.5511,72.8298 151.5311,72.4409 148.0445,72.752 144.519,73.5297 141.3823,74.5407 139.0622,75.5517 137.9865,76.3293 138.5827,76.6404 138.5827,76.6404 140.9676,76.3293 144.7134,75.5517 149.4313,74.5407 154.7325,73.5297 160.2281,72.752 165.5293,72.4409 170.2472,72.8298 173.9931,74.1518 176.378,76.6404 176.378,76.6404 177.1297,80.1141 176.4428,84.1321 174.6282,88.5389 171.997,93.1791 168.8604,97.897 165.5293,102.5372 162.3149,106.944 159.5282,110.9621 157.4803,114.4357"/>
    <polyline points="239.3701,240.4199 235.8964,238.6831 231.8784,236.6741 227.4716,234.4707 222.8314,232.1506 218.1135,229.7916 213.4733,227.4716 209.0665,225.2681 205.0484,223.2591 201.5748,221.5223 201.5748,221.5223 198.9307,220.1225 197.2198,219.0726 196.3255,218.3727 196.131,218.0227 196.5199,218.0227 197.3753,218.3727 198.5807,219.0726 200.0194,220.1225 201.5748,221.5223 201.5748,221.5223 203.4672,223.5702 205.865,226.3569 208.5739,229.5713 211.3995,232.9024 214.1473,236.039 216.6229,238.6702 218.6319,240.4848 219.9799,241.1717 220.4724,240.4199 220.4724,240.4199 219.9799,238.1906 218.6319,234.8336 216.6229,230.6212 214.1473,225.8255 211.3995,220.7187 208.5739,215.5731 205.865,210.6607 203.4672,206.2538 201.5748,202.6247 201.5748,202.6247 200.175,199.9806 199.1251,198.2697 198.4252,197.3753 198.0752,197.1809 198.0752,197.5697 198.4252,198.4252 199.1251,199.6306 200.175,201.0693 201.5748,202.6247 201.5748,202.6247 203.1561,204.517 204.7763,206.9149 206.4742,209.6238 208.2888,212.4494 210.2589,215.1972 212.4234,217.6728 214.8213,219.6818 217.4913,221.0298 220.4724,221.5223 220.4724,221.5223 223.4535,221.0298 226.1236,219.6818 228.5214,217.6728 230.686,215.1972 232.6561,212.4494 234.4707,209.6238 236.1686,206.9149 237.7888,204.517 239.3701,202.6247"/>
    <polygon points="264.5669,284.5144 264.5669,286.2513 264.5669,288.2603 264.5669,290.4637 264.5669,292.7838 264.5669,295.1427 264.5669,297.4628 264.5669,299.6662 264.5669,301.6753 264.5669,303.4121 264.5669,303.4121 264.5669,304.6564 264.5669,305.3174 264.5669,305.5118 264.5669,305.3563 264.5669,304.9674 264.5669,304.4619 264.5669,303.9564 264.5669,303.5676 264.5669,303.4121 264.5669,303.4121 264.4114,303.4121 264.0226,303.4121 263.5171,303.4121 263.0116,303.4121 262.6227,303.4121 262.4672,303.4121 262.6616,303.4121 263.3226,303.4121 264.5669,303.4121 264.5669,303.4121 266.1482,303.7231 267.7684,304.5008 269.4663,305.5118 271.2809,306.5228 273.251,307.3005 275.4156,307.6115 277.8134,307.2227 280.4835,305.9007 283.4646,303.4121 283.4646,303.4121 286.4457,299.9384 289.1157,295.9204 291.5136,291.5136 293.6781,286.8734 295.6482,282.1555 297.4628,277.5153 299.1608,273.1085 300.7809,269.0904 302.3622,265.6168 302.3622,265.6168 303.6065,262.9727 304.2675,261.2618 304.4619,260.3675 304.3064,260.173 303.9176,260.5619 303.4121,261.4173 302.9066,262.6227 302.5177,264.0614 302.3622,265.6168 302.3622,265.6168 302.6733,267.1981 303.451,268.8182 304.4619,270.5162 305.4729,272.3308 306.2506,274.3009 306.5617,276.4654 306.1728,278.8633 304.8508,281.5333 302.3622,284.5144 302.3622,284.5144 298.8886,287.6511 294.8705,290.71 290.4637,293.6133 285.8235,296.2833 281.1056,298.6423 276.4654,300.6124 272.0586,302.1159 268.0406,303.0751 264.5669,303.4121 264.5669,303.4121 262.0784,302.9195 260.7563,301.5716 260.3675,299.5626 260.6785,297.0869 261.4562,294.3391 262.4672,291.5136 263.4782,288.8046 264.2559,286.4068"/>
    <polyline points="327.5591,328.6089 327.5591,332.2381 327.5591,336.645 327.5591,341.5573 327.5591,346.703 327.5591,351.8097 327.5591,356.6054 327.5591,360.8179 327.5591,364.1748 327.5591,366.4042 327.5591,366.4042 327.4035,367.0004 327.0147,365.9246 326.5092,363.6045 326.0037,360.4679 325.6149,356.9424 325.4593,353.4558 325.6537,350.4358 326.3148,348.3102 327.5591,347.5066 327.5591,347.5066 329.4514,347.9991 331.8493,349.3471 334.5582,351.3561 337.3838,353.8317 340.1316,356.5795 342.6072,359.4051 344.6162,362.114 345.9642,364.5118 346.4567,366.4042 346.4567,366.4042 345.8086,367.6485 344.0718,368.3095 341.5573,368.5039 338.5762,368.3484 335.4396,367.9596 332.4584,367.4541 329.9439,366.9486 328.2071,366.5597 327.5591,366.4042 327.5591,366.4042 328.2071,366.4042 329.9439,366.4042 332.4584,366.4042 335.4396,366.4042 338.5762,366.4042 341.5573,366.4042 344.0718,366.4042 345.8086,366.4042 346.4567,366.4042 346.4567,366.4042 345.9642,366.4042 344.6162,366.4042 342.6072,366.4042 340.1316,366.4042 337.3838,366.4042 334.5582,366.4042 331.8493,366.4042 329.4514,366.4042 327.5591,366.4042"/>
  </g>
  <g fill="none" id="layer3" inkscape:groupmode="layer" inkscape:label="3" stroke="#ff0000" style="display:inline">
    <polyline points="31.4961,177.4278 33.544,173.7986 36.3306,169.3918 39.5451,164.4794 42.8761,159.3338 46.0128,154.227 48.6439,149.4313 50.4585,145.2189 51.1455,141.8619 50.3937,139.6325 50.3937,139.6325 48.1643,138.8808 44.8074,139.5677 40.5949,141.3823 35.7992,144.0135 30.6925,147.1501 25.5468,150.4812 20.6345,153.6956 16.2276,156.4823 12.5984,158.5302 12.5984,158.5302 10.1098,159.7745 8.7878,160.4355 8.399,160.6299 8.71,160.4744 9.4877,160.0855 10.4987,159.5801 11.5097,159.0746 12.2874,158.6857 12.5984,158.5302 12.5984,158.5302 12.5984,158.6857 12.5984,159.0746 12.5984,159.5801 12.5984,160.0855 12.5984,160.4744 12.5984,160.6299 12.5984,160.4355 12.5984,159.7745 12.5984,158.5302 12.5984,158.5302 12.4429,156.4823 12.054,153.6956 11.5486,150.4812 11.0431,147.1501 10.6542,144.0135 10.4987,141.3823 10.6931,139.5677 11.3541,138.8808 12.5984,139.6325 12.5984,139.6325 14.4908,141.8619 16.8886,145.2189 19.5976,149.4313 22.4231,154.227 25.1709,159.3338 27.6465,164.4794 29.6556,169.3918 31.0035,173.7986 31.4961,177.4278 31.4961,177.4278 30.848,180.2275 29.1112,182.3272 26.5967,183.727 23.6156,184.4269 20.4789,184.4269 17.4978,183.727 14.9833,182.3272 13.2465,180.2275 12.5984,177.4278 12.5984,177.4278 13.091,173.9542 14.4389,169.9362 16.4479,165.5293 18.9236,160.8891 21.6714,156.1712 24.4969,151.5311 27.2059,147.1242 29.6037,143.1062 31.4961,139.6325"/>
    <polyline points="31.4961,366.4042 31.3405,366.4042 30.9517,366.4042 30.4462,366.4042 29.9407,366.4042 29.5519,366.4042 29.3963,366.4042 29.5907,366.4042 30.2518,366.4042 31.4961,366.4042 31.4961,366.4042 33.3884,366.4042 35.7863,366.4042 38.4952,366.4042 41.3208,366.4042 44.0686,366.4042 46.5442,366.4042 48.5532,366.4042 49.9012,366.4042 50.3937,366.4042 50.3937,366.4042 49.9012,366.4042 48.5532,366.4042 46.5442,366.4042 44.0686,366.4042 41.3208,366.4042 38.4952,366.4042 35.7863,366.4042 33.3884,366.4042 31.4961,366.4042 31.4961,366.4042 30.4073,366.5597 30.1351,366.9486 30.4462,367.4541 31.1072,367.9596 31.8849,368.3484 32.5459,368.5039 32.857,368.3095 32.5848,367.6485 31.4961,366.4042 31.4961,366.4042 29.7592,364.6674 27.7502,362.6584 25.5468,360.4549 23.2267,358.1349 20.8678,355.7759 18.5477,353.4558 16.3443,351.2524 14.3352,349.2434 12.5984,347.5066 12.5984,347.5066 11.3541,346.2623 10.6931,345.6012 10.4987,345.4068 10.6542,345.5624 11.0431,345.9512 11.5486,346.4567 12.054,346.9622 12.4429,347.351 12.5984,347.5066 12.5984,347.5066 12.4429,347.6621 12.054,348.0509 11.5486,348.5564 11.0431,349.0619 10.6542,349.4508 10.4987,349.6063 10.6931,349.4119 11.3541,348.7509 12.5984,347.5066 12.5984,347.5066 14.3352,345.7697 16.3443,343.7607 18.5477,341.5573 20.8678,339.2372 23.2267,336.8783 25.5468,334.5582 27.7502,332.3548 29.7592,330.3457 31.4961,328.6089"/>
    <polyline points="138.5827,303.4121 142.3674,299.6274 147.1631,294.8317 152.5809,289.4138 158.2321,283.7627 163.7277,278.2671 168.6789,273.3158 172.6969,269.2978 175.3929,266.6019 176.378,265.6168 176.378,265.6168 175.0818,266.6019 171.6082,269.2978 166.5792,273.3158 160.617,278.2671 154.3437,283.7627 148.3815,289.4138 143.3525,294.8317 139.8788,299.6274 138.5827,303.4121 138.5827,303.4121 139.5677,305.9007 142.2637,307.2227 146.2817,307.6115 151.2329,307.3005 156.7286,306.5228 162.3797,305.5118 167.7975,304.5008 172.5932,303.7231 176.378,303.4121"/>
    <polyline points="157.4803,366.4042 155.588,362.775 153.1901,358.3682 150.4812,353.4558 147.6556,348.3102 144.9078,343.2034 142.4322,338.4077 140.4232,334.1953 139.0752,330.8383 138.5827,328.6089 138.5827,328.6089 139.0752,327.7016 140.4232,327.9997 142.4322,329.3088 144.9078,331.4345 147.6556,334.1823 150.4812,337.3578 153.1901,340.7667 155.588,344.2144 157.4803,347.5066 157.4803,347.5066 158.5691,350.6432 158.8413,353.7021 158.5302,356.6054 157.8692,359.2755 157.0915,361.6344 156.4304,363.6045 156.1194,365.1081 156.3916,366.0672 157.4803,366.4042 157.4803,366.4042 159.2171,365.9117 161.2261,364.5637 163.4296,362.5547 165.7497,360.0791 168.1086,357.3313 170.4287,354.5057 172.6321,351.7968 174.6411,349.3989 176.378,347.5066 176.378,347.5066 177.6222,346.2623 178.2833,345.6012 178.4777,345.4068 178.3222,345.5624 177.9333,345.9512 177.4278,346.4567 176.9223,346.9622 176.5335,347.351 176.378,347.5066"/>
    <polyline points="239.3701,13.6483 235.7409,13.3372 231.334,12.5595 226.4217,11.5486 221.276,10.5376 216.1693,9.7599 211.3736,9.4488 207.1611,9.8377 203.8042,11.1597 201.5748,13.6483 201.5748,13.6483 200.9786,17.433 202.0544,22.2287 204.3745,27.6465 207.5111,33.2977 211.0366,38.7933 214.5232,43.7445 217.5432,47.7625 219.6688,50.4585 220.4724,51.4436 220.4724,51.4436 219.6688,50.303 217.5432,47.2182 214.5232,42.6947 211.0366,37.2379 207.5111,31.3535 204.3745,25.5468 202.0544,20.3234 200.9786,16.1887 201.5748,13.6483 201.5748,13.6483 203.8042,13.0521 207.1611,14.1279 211.3736,16.4479 216.1693,19.5846 221.276,23.1101 226.4217,26.5967 231.334,29.6167 235.7409,31.7423 239.3701,32.5459 239.3701,32.5459 242.0142,32.0534 243.7251,30.7054 244.6194,28.6964 244.8138,26.2208 244.425,23.473 243.5696,20.6474 242.3641,17.9385 240.9254,15.5407 239.3701,13.6483 239.3701,13.6483 237.6333,12.404 235.6243,11.743 233.4208,11.5486 231.1007,11.7041 228.7418,12.0929 226.4217,12.5984 224.2183,13.1039 222.2093,13.4928 220.4724,13.6483"/>
    <polyline points="239.3701,265.6168 239.3701,269.4015 239.3701,274.1972 239.3701,279.615 239.3701,285.2662 239.3701,290.7618 239.3701,295.713 239.3701,299.7311 239.3701,302.427 239.3701,303.4121 239.3701,303.4121 239.6812,302.1159 240.4588,298.6423 241.4698,293.6133 242.4808,287.6511 243.2585,281.3778 243.5696,275.4156 243.1807,270.3866 241.8587,266.9129 239.3701,265.6168 239.3701,265.6168 235.5854,266.6019 230.7897,269.2978 225.3718,273.3158 219.7207,278.2671 214.2251,283.7627 209.2738,289.4138 205.2558,294.8317 202.5599,299.6274 201.5748,303.4121 201.5748,303.4121 202.7154,306.2117 205.8002,308.3115 210.3237,309.7113 215.7804,310.4112 221.6649,310.4112 227.4716,309.7113 232.695,308.3115 236.8297,306.2117 239.3701,303.4121 239.3701,303.4121 240.2774,299.6274 239.9793,294.8317 238.6702,289.4138 236.5445,283.7627 233.7967,278.2671 230.6212,273.3158 227.2123,269.2978 223.7646,266.6019 220.4724,265.6168 220.4724,265.6168 217.3358,266.7574 214.2769,269.8422 211.3736,274.3657 208.7035,279.8224 206.3446,285.7069 204.3745,291.5136 202.8709,296.737 201.9118,300.8717 201.5748,303.4121 201.5748,303.4121 202.0673,304.1638 203.4153,303.4769 205.4243,301.6623 207.8999,299.0311 210.6477,295.8945 213.4733,292.5634 216.1822,289.349 218.5801,286.5623 220.4724,284.5144"/>
    <polyline points="283.4646,139.6325 283.6201,139.477 284.0089,139.0882 284.5144,138.5827 285.0199,138.0772 285.4088,137.6883 285.5643,137.5328 285.3699,137.7272 284.7089,138.3883 283.4646,139.6325 283.4646,139.6325 281.4167,141.3694 278.63,143.3784 275.4156,145.5818 272.0845,147.9019 268.9479,150.2608 266.3167,152.5809 264.5021,154.7844 263.8152,156.7934 264.5669,158.5302 264.5669,158.5302 267.1074,159.93 271.242,160.9799 276.4654,161.6798 282.2721,162.0297 288.1566,162.0297 293.6133,161.6798 298.1368,160.9799 301.2216,159.93 302.3622,158.5302 302.3622,158.5302 301.3771,156.6378 298.6812,154.24 294.6632,151.5311 289.7119,148.7055 284.2163,145.9577 278.5652,143.4821 273.1473,141.4731 268.3516,140.1251 264.5669,139.6325 264.5669,139.6325 261.9228,140.1251 260.2119,141.4731 259.3176,143.4821 259.1232,145.9577 259.512,148.7055 260.3675,151.5311 261.5729,154.24 263.0116,156.6378 264.5669,158.5302 264.5669,158.5302 266.4593,159.6189 268.8571,159.8911 271.5661,159.5801 274.3916,158.919 277.1394,158.1413 279.615,157.4803 281.6241,157.1692 282.972,157.4414 283.4646,158.5302 283.4646,158.5302 282.8165,160.267 281.0797,162.276 278.5652,164.4794 275.5841,166.7995 272.4474,169.1585 269.4663,171.4786 266.9518,173.682 265.215,175.691 264.5669,177.4278 264.5669,177.4278 265.0595,178.6721 266.4074,179.3331 268.4164,179.5276 270.8921,179.372 273.6399,178.9832 276.4654,178.4777 279.1744,177.9722 281.5722,177.5834 283.4646,177.4278"/>
    <polyline points="302.3622,328.6089 300.6254,328.4534 298.6164,328.0645 296.4129,327.5591 294.0929,327.0536 291.7339,326.6647 289.4138,326.5092 287.2104,326.7036 285.2014,327.3646 283.4646,328.6089 283.4646,328.6089 282.3758,330.1902 282.1036,331.8104 282.4147,333.5083 283.0757,335.3229 283.8534,337.293 284.5144,339.4576 284.8255,341.8554 284.5533,344.5255 283.4646,347.5066 283.4646,347.5066 281.5722,350.7987 279.1744,354.2465 276.4654,357.6553 273.6399,360.8308 270.8921,363.5786 268.4164,365.7043 266.4074,367.0134 265.0595,367.3115 264.5669,366.4042 264.5669,366.4042 265.0595,364.1748 266.4074,360.8179 268.4164,356.6054 270.8921,351.8097 273.6399,346.703 276.4654,341.5573 279.1744,336.645 281.5722,332.2381 283.4646,328.6089"/>
    <polyline points="327.5591,13.6483 327.248,17.2775 326.4703,21.6843 325.4593,26.5967 324.4483,31.7423 323.6707,36.8491 323.3596,41.6448 323.7484,45.8572 325.0705,49.2142 327.5591,51.4436 327.5591,51.4436 331.0327,52.3509 335.0507,52.0528 339.4576,50.7437 344.0977,48.618 348.8157,45.8702 353.4558,42.6947 357.8627,39.2858 361.8807,35.8381 365.3543,32.5459 365.3543,32.5459 367.9984,29.2538 369.7093,25.806 370.6037,22.3972 370.7981,19.2217 370.4093,16.4739 369.5538,14.3482 368.3484,13.0391 366.9097,12.741 365.3543,13.6483 365.3543,13.6483 363.462,15.8776 361.0641,19.2346 358.3552,23.4471 355.5296,28.2428 352.7818,33.3495 350.3062,38.4952 348.2972,43.4075 346.9492,47.8144 346.4567,51.4436 346.4567,51.4436 346.9492,53.9321 348.2972,55.2542 350.3062,55.643 352.7818,55.332 355.5296,54.5543 358.3552,53.5433 361.0641,52.5323 363.462,51.7546 365.3543,51.4436"/>
    <polyline points="327.5591,221.5223 331.3438,219.4744 336.1395,216.6877 341.5573,213.4733 347.2085,210.1423 352.7041,207.0056 357.6553,204.3745 361.6733,202.5599 364.3693,201.8729 365.3543,202.6247 365.3543,202.6247 364.0582,204.854 360.5846,208.211 355.5556,212.4234 349.5933,217.2191 343.32,222.3259 337.3578,227.4716 332.3288,232.3839 328.8552,236.7908 327.5591,240.4199 327.5591,240.4199 328.8552,243.0641 332.3288,244.775 337.3578,245.6693 343.32,245.8637 349.5933,245.4749 355.5556,244.6194 360.5846,243.414 364.0582,241.9753 365.3543,240.4199 365.3543,240.4199 364.0582,238.8387 360.5846,237.2185 355.5556,235.5206 349.5933,233.706 343.32,231.7358 337.3578,229.5713 332.3288,227.1735 328.8552,224.5034 327.5591,221.5223 327.5591,221.5223 328.5441,218.5412 331.2401,215.8712 335.2581,213.4733 340.2093,211.3088 345.7049,209.3386 351.3561,207.5241 356.7739,205.8261 361.5696,204.206 365.3543,202.6247 365.3543,202.6247 367.9984,201.0693 369.7093,199.6306 370.6037,198.4252 370.7981,197.5697 370.4093,197.1809 369.5538,197.3753 368.3484,198.2697 366.9097,199.9806 365.3543,202.6247 365.3543,202.6247 363.773,206.0983 362.1529,210.1163 360.4549,214.5232 358.6404,219.1633 356.6702,223.8813 354.5057,228.5214 352.1078,232.9283 349.4378,236.9463 346.4567,240.4199 346.4567,240.4199 343.1645,243.0641 339.7168,244.775 336.308,245.6693 333.1324,245.8637 330.3846,245.4749 328.259,244.6194 326.9499,243.414 326.6518,241.9753 327.5591,240.4199 327.5591,240.4199 329.7884,238.5276 333.1454,236.1297 337.3578,233.4208 342.1535,230.5952 347.2603,227.8474 352.4059,225.3718 357.3183,223.3628 361.7252,222.0148 365.3543,221.5223 365.3543,221.5223 367.8429,222.0148 369.165,223.3628 369.5538,225.3718 369.2427,227.8474 368.4651,230.5952 367.4541,233.4208 366.4431,236.1297 365.6654,238.5276 365.3543,240.4199"/>
    <polyline points="327.5591,303.4121 331.0327,301.5197 335.0507,299.1219 339.4576,296.4129 344.0977,293.5874 348.8157,290.8396 353.4558,288.364 357.8627,286.3549 361.8807,285.007 365.3543,284.5144 365.3543,284.5144 368.154,285.318 370.2537,287.4437 371.6535,290.4637 372.3535,293.9503 372.3535,297.4758 371.6535,300.6124 370.2537,302.9325 368.154,304.0083 365.3543,303.4121 365.3543,303.4121 361.5696,301.1827 356.7739,297.8257 351.3561,293.6133 345.7049,288.8176 340.2093,283.7108 335.2581,278.5652 331.2401,273.6528 328.5441,269.246 327.5591,265.6168 327.5591,265.6168 328.8552,263.1282 332.3288,261.8062 337.3578,261.4173 343.32,261.7284 349.5933,262.5061 355.5556,263.5171 360.5846,264.528 364.0582,265.3057 365.3543,265.6168 365.3543,265.6168 364.2137,265.6168 361.1289,265.6168 356.6054,265.6168 351.1487,265.6168 345.2642,265.6168 339.4576,265.6168 334.2341,265.6168 330.0995,265.6168 327.5591,265.6168 327.5591,265.6168 326.8073,265.3057 327.4942,264.528 329.3088,263.5171 331.94,262.5061 335.0766,261.7284 338.4077,261.4173 341.6221,261.8062 344.4088,263.1282 346.4567,265.6168 346.4567,265.6168 347.8565,269.4015 348.9064,274.1972 349.6063,279.615 349.9563,285.2662 349.9563,290.7618 349.6063,295.713 348.9064,299.7311 347.8565,302.427 346.4567,303.4121 346.4567,303.4121 344.7199,302.427 342.7109,299.7311 340.5074,295.713 338.1874,290.7618 335.8284,285.2662 333.5083,279.615 331.3049,274.1972 329.2959,269.4015 327.5591,265.6168"/>
  </g>
  <g fill="none" id="layer4" inkscape:groupmode="layer" inkscape:label="4" stroke="#00cccc" style="display:inline">
    <polyline points="31.4961,265.6168 33.3884,267.1981 35.7863,268.8182 38.4952,270.5162 41.3208,272.3308 44.0686,274.3009 46.5442,276.4654 48.5532,278.8633 49.9012,281.5333 50.3937,284.5144 50.3937,284.5144 50.0567,287.8066 49.0976,291.2543 47.5941,294.6632 45.6239,297.8387 43.265,300.5865 40.5949,302.7122 37.6916,304.0213 34.6327,304.3194 31.4961,303.4121 31.4961,303.4121 28.2039,301.0272 24.7562,297.2814 21.3473,292.5634 18.1718,287.2622 15.424,281.7666 13.2983,276.4654 11.9892,271.7475 11.6911,268.0017 12.5984,265.6168 12.5984,265.6168 14.8278,265.0206 18.1848,266.0964 22.3972,268.4164 27.1929,271.5531 32.2997,275.0786 37.4453,278.5652 42.3577,281.5852 46.7645,283.7108 50.3937,284.5144 50.3937,284.5144 53.0378,284.0219 54.7487,282.6739 55.643,280.6649 55.8375,278.1893 55.4486,275.4415 54.5932,272.6159 53.3878,269.907 51.9491,267.5092 50.3937,265.6168 50.3937,265.6168 48.5013,264.3725 46.1035,263.7115 43.3946,263.5171 40.569,263.6726 37.8212,264.0614 35.3456,264.5669 33.3366,265.0724 31.9886,265.4613 31.4961,265.6168 31.4961,265.6168 31.9886,265.6168 33.3366,265.6168 35.3456,265.6168 37.8212,265.6168 40.569,265.6168 43.3946,265.6168 46.1035,265.6168 48.5013,265.6168 50.3937,265.6168"/>
    <polyline points="94.4882,76.6404 96.5361,78.5328 99.3228,80.9306 102.5372,83.6395 105.8682,86.4651 109.0049,89.2129 111.636,91.6885 113.4506,93.6975 114.1376,95.0455 113.3858,95.5381 113.3858,95.5381 111.0009,94.7345 107.2551,92.6088 102.5372,89.5888 97.236,86.1022 91.7404,82.5767 86.4392,79.4401 81.7213,77.12 77.9754,76.0442 75.5906,76.6404 75.5906,76.6404 74.6833,79.1808 74.9814,83.3155 76.2905,88.5389 78.4161,94.3456 81.1639,100.2301 84.3395,105.6868 87.7483,110.2103 91.196,113.2951 94.4882,114.4357 94.4882,114.4357 97.7804,113.4506 101.2281,110.7547 104.6369,106.7367 107.8124,101.7854 110.5603,96.2898 112.6859,90.6387 113.995,85.2208 114.2931,80.4251 113.3858,76.6404 113.3858,76.6404 111.1565,74.1518 107.7995,72.8298 103.5871,72.4409 98.7914,72.752 93.6846,73.5297 88.5389,74.5407 83.6266,75.5517 79.2197,76.3293 75.5906,76.6404"/>
    <polyline points="138.5827,158.5302 138.2716,156.6378 137.4939,154.24 136.4829,151.5311 135.472,148.7055 134.6943,145.9577 134.3832,143.4821 134.772,141.4731 136.0941,140.1251 138.5827,139.6325 138.5827,139.6325 142.0563,140.1251 146.0743,141.4731 150.4812,143.4821 155.1214,145.9577 159.8393,148.7055 164.4794,151.5311 168.8863,154.24 172.9043,156.6378 176.378,158.5302 176.378,158.5302 178.8665,159.93 180.1886,160.9799 180.5774,161.6798 180.2664,162.0297 179.4887,162.0297 178.4777,161.6798 177.4667,160.9799 176.689,159.93 176.378,158.5302 176.378,158.5302 176.5335,156.4823 176.9223,153.6956 177.4278,150.4812 177.9333,147.1501 178.3222,144.0135 178.4777,141.3823 178.2833,139.5677 177.6222,138.8808 176.378,139.6325 176.378,139.6325 174.6411,142.173 172.6321,146.3076 170.4287,151.5311 168.1086,157.3377 165.7497,163.2222 163.4296,168.6789 161.2261,173.2024 159.2171,176.2872 157.4803,177.4278 157.4803,177.4278 156.236,176.4428 155.575,173.7468 155.3806,169.7288 155.5361,164.7776 155.925,159.2819 156.4304,153.6308 156.9359,148.213 157.3248,143.4173 157.4803,139.6325"/>
    <polyline points="239.3701,76.6404 235.5854,76.6404 230.7897,76.6404 225.3718,76.6404 219.7207,76.6404 214.2251,76.6404 209.2738,76.6404 205.2558,76.6404 202.5599,76.6404 201.5748,76.6404 201.5748,76.6404 202.7154,76.4849 205.8002,76.096 210.3237,75.5906 215.7804,75.0851 221.6649,74.6962 227.4716,74.5407 232.695,74.7351 236.8297,75.3961 239.3701,76.6404 239.3701,76.6404 239.9663,78.2217 238.8905,79.8419 236.5704,81.5398 233.4338,83.3544 229.9083,85.3245 226.4217,87.4891 223.4017,89.8869 221.276,92.5569 220.4724,95.5381 220.4724,95.5381 221.1205,98.8302 222.8573,102.278 225.3718,105.6868 228.3529,108.8623 231.4896,111.6101 234.4707,113.7358 236.9852,115.0449 238.722,115.343 239.3701,114.4357 239.3701,114.4357 238.8775,112.0508 237.5296,108.305 235.5206,103.5871 233.0449,98.2859 230.2971,92.7903 227.4716,87.4891 224.7626,82.7711 222.3648,79.0253 220.4724,76.6404 220.4724,76.6404 219.2282,75.7331 218.5671,76.0312 218.3727,77.3403 218.5282,79.466 218.9171,82.2138 219.4226,85.3893 219.9281,88.7982 220.3169,92.2459 220.4724,95.5381 220.4724,95.5381 220.4724,98.5192 220.4724,101.1892 220.4724,103.5871 220.4724,105.7516 220.4724,107.7217 220.4724,109.5363 220.4724,111.2342 220.4724,112.8544 220.4724,114.4357"/>
    <polygon points="239.3701,177.4278 237.4777,175.691 235.0799,173.682 232.371,171.4786 229.5454,169.1585 226.7976,166.7995 224.322,164.4794 222.313,162.276 220.965,160.267 220.4724,158.5302 220.4724,158.5302 221.276,157.4414 223.4017,157.1692 226.4217,157.4803 229.9083,158.1413 233.4338,158.919 236.5704,159.5801 238.8905,159.8911 239.9663,159.6189 239.3701,158.5302 239.3701,158.5302 237.1407,156.6378 233.7837,154.24 229.5713,151.5311 224.7756,148.7055 219.6688,145.9577 214.5232,143.4821 209.6108,141.4731 205.204,140.1251 201.5748,139.6325 201.5748,139.6325 198.7752,139.9695 196.6754,140.9287 195.2756,142.4322 194.5757,144.4023 194.5757,146.7613 195.2756,149.4313 196.6754,152.3347 198.7752,155.3935 201.5748,158.5302 201.5748,158.5302 205.0484,161.5113 209.0665,164.1813 213.4733,166.5792 218.1135,168.7437 222.8314,170.7138 227.4716,172.5284 231.8784,174.2264 235.8964,175.8465"/>
    <polyline points="201.5748,347.5066 201.2637,347.6621 200.4861,348.0509 199.4751,348.5564 198.4641,349.0619 197.6864,349.4508 197.3753,349.6063 197.7642,349.4119 199.0862,348.7509 201.5748,347.5066 201.5748,347.5066 205.204,345.6142 209.6108,343.2164 214.5232,340.5074 219.6688,337.6819 224.7756,334.9341 229.5713,332.4584 233.7837,330.4494 237.1407,329.1015 239.3701,328.6089 239.3701,328.6089 240.2774,328.9459 239.9793,329.9051 238.6702,331.4086 236.5445,333.3787 233.7967,335.7377 230.6212,338.4077 227.2123,341.311 223.7646,344.3699 220.4724,347.5066 220.4724,347.5066 217.4913,350.7987 214.8213,354.2465 212.4234,357.6553 210.2589,360.8308 208.2888,363.5786 206.4742,365.7043 204.7763,367.0134 203.1561,367.3115 201.5748,366.4042 201.5748,366.4042 200.3305,364.1748 199.6695,360.8179 199.4751,356.6054 199.6306,351.8097 200.0194,346.703 200.5249,341.5573 201.0304,336.645 201.4193,332.2381 201.5748,328.6089 201.5748,328.6089 201.2637,326.1203 200.4861,324.7983 199.4751,324.4094 198.4641,324.7205 197.6864,325.4982 197.3753,326.5092 197.7642,327.5202 199.0862,328.2979 201.5748,328.6089 201.5748,328.6089 205.0484,328.6089 209.0665,328.6089 213.4733,328.6089 218.1135,328.6089 222.8314,328.6089 227.4716,328.6089 231.8784,328.6089 235.8964,328.6089 239.3701,328.6089"/>
    <polyline points="283.4646,13.6483 281.4167,17.2775 278.63,21.6843 275.4156,26.5967 272.0845,31.7423 268.9479,36.8491 266.3167,41.6448 264.5021,45.8572 263.8152,49.2142 264.5669,51.4436 264.5669,51.4436 266.9518,52.0398 270.6976,50.964 275.4156,48.6439 280.7168,45.5073 286.2124,41.9818 291.5136,38.4952 296.2315,35.4752 299.9773,33.3495 302.3622,32.5459 302.3622,32.5459 302.9584,33.0385 301.8826,34.3864 299.5626,36.3955 296.4259,38.8711 292.9004,41.6189 289.4138,44.4444 286.3938,47.1534 284.2682,49.5512 283.4646,51.4436 283.4646,51.4436 284.2682,52.8434 286.3938,53.8933 289.4138,54.5932 292.9004,54.9431 296.4259,54.9431 299.5626,54.5932 301.8826,53.8933 302.9584,52.8434 302.3622,51.4436 302.3622,51.4436 299.8218,49.7067 295.6871,47.6977 290.4637,45.4943 284.657,43.1742 278.7726,40.8153 273.3158,38.4952 268.7923,36.2918 265.7075,34.2828 264.5669,32.5459 264.5669,32.5459 265.8631,31.4572 269.3367,31.185 274.3657,31.4961 280.3279,32.1571 286.6012,32.9348 292.5634,33.5958 297.5924,33.9069 301.0661,33.6347 302.3622,32.5459 302.3622,32.5459 301.3771,30.8091 298.6812,28.8001 294.6632,26.5967 289.7119,24.2766 284.2163,21.9176 278.5652,19.5976 273.1473,17.3941 268.3516,15.3851 264.5669,13.6483"/>
    <polyline points="264.5669,76.6404 268.1961,76.4849 272.603,76.096 277.5153,75.5906 282.661,75.0851 287.7677,74.6962 292.5634,74.5407 296.7759,74.7351 300.1329,75.3961 302.3622,76.6404 302.3622,76.6404 303.2695,78.3772 302.9714,80.3862 301.6623,82.5897 299.5366,84.9098 296.7888,87.2687 293.6133,89.5888 290.2045,91.7922 286.7567,93.8012 283.4646,95.5381 283.4646,95.5381 280.3279,96.7823 277.269,97.4434 274.3657,97.6378 271.6957,97.4823 269.3367,97.0934 267.3666,96.5879 265.8631,96.0824 264.9039,95.6936 264.5669,95.5381 264.5669,95.5381 264.9039,95.6936 265.8631,96.0824 267.3666,96.5879 269.3367,97.0934 271.6957,97.4823 274.3657,97.6378 277.269,97.4434 280.3279,96.7823 283.4646,95.5381 283.4646,95.5381 286.7567,93.6457 290.2045,91.2479 293.6133,88.5389 296.7888,85.7134 299.5366,82.9656 301.6623,80.4899 302.9714,78.4809 303.2695,77.133 302.3622,76.6404 302.3622,76.6404 300.1329,77.133 296.7759,78.4809 292.5634,80.4899 287.7677,82.9656 282.661,85.7134 277.5153,88.5389 272.603,91.2479 268.1961,93.6457 264.5669,95.5381"/>
    <polyline points="327.5591,95.5381 329.2959,97.5859 331.3049,100.3726 333.5083,103.5871 335.8284,106.9181 338.1874,110.0548 340.5074,112.6859 342.7109,114.5005 344.7199,115.1875 346.4567,114.4357 346.4567,114.4357 347.701,112.0508 348.362,108.305 348.5564,103.5871 348.4009,98.2859 348.0121,92.7903 347.5066,87.4891 347.0011,82.7711 346.6122,79.0253 346.4567,76.6404 346.4567,76.6404 346.6122,75.8887 347.0011,76.5756 347.5066,78.3902 348.0121,81.0214 348.4009,84.158 348.5564,87.4891 348.362,90.7035 347.701,93.4902 346.4567,95.5381 346.4567,95.5381 344.7199,96.6268 342.7109,96.899 340.5074,96.5879 338.1874,95.9269 335.8284,95.1492 333.5083,94.4882 331.3049,94.1771 329.2959,94.4493 327.5591,95.5381 327.5591,95.5381 326.0037,97.4304 324.565,99.8283 323.3596,102.5372 322.5041,105.3628 322.1153,108.1106 322.3097,110.5862 323.204,112.5952 324.9149,113.9432 327.5591,114.4357 327.5591,114.4357 331.0327,113.9432 335.0507,112.5952 339.4576,110.5862 344.0977,108.1106 348.8157,105.3628 353.4558,102.5372 357.8627,99.8283 361.8807,97.4304 365.3543,95.5381"/>
    <polyline points="327.5591,177.4278 329.2959,173.7986 331.3049,169.3918 333.5083,164.4794 335.8284,159.3338 338.1874,154.227 340.5074,149.4313 342.7109,145.2189 344.7199,141.8619 346.4567,139.6325 346.4567,139.6325 347.701,138.8808 348.362,139.5677 348.5564,141.3823 348.4009,144.0135 348.0121,147.1501 347.5066,150.4812 347.0011,153.6956 346.6122,156.4823 346.4567,158.5302 346.4567,158.5302 346.3012,159.93 345.9123,160.9799 345.4068,161.6798 344.9013,162.0297 344.5125,162.0297 344.357,161.6798 344.5514,160.9799 345.2124,159.93 346.4567,158.5302 346.4567,158.5302 348.5046,156.4823 351.2913,153.6956 354.5057,150.4812 357.8368,147.1501 360.9734,144.0135 363.6045,141.3823 365.4191,139.5677 366.1061,138.8808 365.3543,139.6325 365.3543,139.6325 362.9694,142.0174 359.2236,145.7633 354.5057,150.4812 349.2045,155.7824 343.7089,161.278 338.4077,166.5792 333.6898,171.2971 329.9439,175.0429 327.5591,177.4278 327.5591,177.4278 326.8073,178.1796 327.4942,177.4926 329.3088,175.678 331.94,173.0469 335.0766,169.9102 338.4077,166.5792 341.6221,163.3648 344.4088,160.5781 346.4567,158.5302"/>
  </g>
</svg>
