<?xml version="1.0" encoding="utf-8" ?>
<svg xmlns="http://www.w3.org/2000/svg" xmlns:cc="http://creativecommons.org/ns" xmlns:dc="http://purl.org/dc/elements/1.1/" xmlns:ev="http://www.w3.org/2001/xml-events" xmlns:inkscape="http://www.inkscape.org/namespaces/inkscape" xmlns:rdf="http://www.w3.org/1999/02/22-rdf-syntax-ns" xmlns:sodipodi="http://sodipodi.sourceforge.net/DTD/sodipodi-0.dtd" xmlns:xlink="http://www.w3.org/1999/xlink" baseProfile="tiny" height="8.0cm" version="1.2" viewBox="0 0 944.8818897637797 302.3622047244095" width="25.0cm">
  <metadata>
    <rdf:RDF>
      <cc:Work>
        <dc:format>image/svg+xml</dc:format>
        <dc:source>Generated with vsketch</dc:source>
        <dc:date>2025-03-27T17:53:33.492835</dc:date>
      </cc:Work>
    </rdf:RDF>
  </metadata>
  <defs/>
  <g fill="none" id="layer1" inkscape:groupmode="layer" inkscape:label="1" stroke="#0000ff" style="display:inline">
    <polygon points="27.4514,149.556 27.9593,150.4754 28.0196,150.578 31.1024,155.5263 31.26,155.7484 34.5665,159.8597 34.7661,160.0773 34.9923,160.267 38.4528,162.8053 38.7252,162.9768 39.0191,163.108 39.3287,163.1962 39.6476,163.2398 43.1922,163.4691 43.5248,163.4662 43.8533,163.4147 44.1708,163.3156 44.4703,163.1712 44.7456,162.9846 48.3046,160.1691 48.5346,159.9599 48.7339,159.7213 48.8986,159.4576 51.8545,153.9145 51.9602,153.6869 52.04,153.449 54.0226,146.2426 54.0773,145.9872 55.3877,137.5022 55.403,137.3821 56.3425,128.003 56.3451,127.9757 57.2126,118.112 58.304,108.1871 59.9087,98.6074 62.3009,89.7765 65.7785,81.9773 69.8784,75.0538 73.8513,68.9693 77.6257,64.0858 81.1281,60.6818 84.1795,58.959 86.7451,58.771 89.4445,60.1133 92.6227,63.7349 96.0515,70.0539 99.0587,79.1803 101.1825,90.6974 102.5707,103.9023 103.3907,118.053 103.823,132.4318 104.0519,146.3329 104.1453,151.9492 104.0671,153.2697 104.0642,153.4761 104.2962,160.7452 104.3004,160.8289 104.3521,161.5778 104.6445,169.8821 104.6521,170.0052 105.388,178.1961 105.4062,178.3441 105.9862,182.0479 106.0599,182.3663 106.1786,182.6708 106.3398,182.9551 106.5403,183.2132 106.7757,183.4399 107.0413,183.6303 107.3315,183.7806 107.6403,183.8877 107.9612,183.9492 108.2877,183.9639 108.6129,183.9316 108.9301,183.8529 109.2327,183.7294 109.5144,183.5637 109.7693,183.3592 109.9922,183.1202 110.1784,182.8516 110.3241,182.5591 110.4262,182.2486 110.4827,181.9267 110.4923,181.6 110.4379,180.3306 110.4302,180.217 109.9781,175.3703 109.3653,168.3495 108.882,161.3419 108.7976,158.9445 108.6929,152.6484 110.2661,157.306 112.7177,168.1929 115.2117,181.4291 117.8586,195.8397 117.8663,195.8798 120.7894,210.3266 120.8115,210.4245 124.1393,223.7984 124.1962,223.9903 128.0585,235.1872 128.2336,235.5734 132.76,243.4892 132.9576,243.7799 133.1977,244.0365 133.4746,244.253 138.7947,247.7838 139.0905,247.9497 139.4078,248.0696 139.7395,248.1408 140.078,248.1618 140.4159,248.1321 140.7456,248.0523 146.094,246.325 146.4221,246.1898 146.7251,246.0052 146.9956,245.7755 147.2269,245.5065 151.8781,239.1528 152.0214,238.9311 152.1379,238.6942 156.2811,228.867 156.3546,228.6669 160.1788,216.5189 160.2009,216.4442 163.8942,203.1326 167.6338,189.8524 171.5842,177.8178 175.8622,168.2767 180.4419,162.4389 184.6582,160.341 187.4194,160.5949 183.7197,167.5177 183.6768,167.6022 178.2713,178.8197 178.2228,178.9274 174.0508,188.8796 173.9863,189.053 171.3664,197.0839 171.294,197.366 171.2584,197.655 170.9327,203.2329 170.9398,203.5881 171.0023,203.9378 171.1187,204.2734 171.2861,204.5868 173.3714,207.8478 173.5549,208.0957 173.7703,208.3165 174.0137,208.506 174.2805,208.6607 174.5658,208.7778 178.443,210.0681 178.726,210.1423 179.0162,210.1796 179.3088,210.1791 184.3585,209.8449 184.836,209.7614 190.4388,208.1488 190.7587,208.0301 196.2955,205.4853 196.5781,205.3302 201.4294,202.1993 201.762,201.9377 205.3087,198.567 205.5707,198.2704 205.7772,197.9327 207.3999,194.6682 207.531,194.3437 207.6107,194.0029 207.6369,193.6539 207.6283,189.6454 207.5981,189.2817 206.7069,183.8724 206.6549,183.6361 204.946,177.4627 204.8727,177.2425 202.4112,170.9417 202.2912,170.6836 199.1419,164.8921 198.9101,164.546 195.138,159.9005 194.9007,159.65 194.6282,159.4384 193.5581,158.7308 194.0189,157.8686 200.8871,146.1713 208.0183,135.1916 215.0745,125.6056 221.6843,118.1107 227.397,113.4087 231.1027,111.8973 232.5868,112.3065 233.793,114.3698 234.6791,118.9255 235.1417,125.2408 235.4748,132.6465 235.4783,132.7055 236.0428,140.6397 236.0609,140.8066 237.2257,148.7783 237.2875,149.0676 239.4229,156.6175 239.4368,156.665 241.69,164.0154 243.2105,171.5683 244.3004,179.0645 245.2227,186.0535 245.2354,186.1376 246.2605,192.1567 246.3263,192.4354 247.7295,197.0531 247.8719,197.4097 248.0723,197.7372 250.1311,200.5368 250.3525,200.7948 250.6099,201.0168 250.8976,201.1978 251.2091,201.3338 251.5374,201.4217 254.5291,201.9864 254.8204,202.022 255.1139,202.0198 255.4046,201.9796 255.6877,201.9023 255.9584,201.789 260.1604,199.7021 260.4978,199.496 260.7944,199.2344 265.7039,194.0756 265.987,193.7096 270.8939,185.817 271.0031,185.6203 275.8735,175.7148 275.9228,175.6077 280.7229,164.4102 280.7448,164.3572 285.4408,152.5886 285.4456,152.5763 289.9979,140.9719 294.3606,130.2809 298.4772,121.2637 299.8172,118.9363 300.4541,124.6842 300.5211,125.0345 302.6792,132.9004 302.7332,133.0709 306.0587,142.2771 306.0635,142.2904 309.8849,152.6658 309.8887,152.676 314.0146,163.7155 314.0179,163.7244 317.5705,173.1098 317.5024,173.3878 317.4741,173.7573 317.5079,180.1966 317.5259,180.4699 317.5767,180.739 319.4683,188.243 319.5595,188.5253 322.6755,196.3753 322.7515,196.5459 326.4586,204.023 326.5235,204.1445 330.1883,210.53 330.2567,210.6416 333.2458,215.2166 333.3918,215.4155 335.072,217.4613 335.2907,217.6925 335.5397,217.8908 335.8139,218.0522 336.1081,218.1737 336.4164,218.2528 336.7327,218.2879 337.0508,218.2785 337.3645,218.2246 337.6675,218.1273 337.9539,217.9885 338.2181,217.811 338.4548,217.5983 338.6594,217.3545 338.8279,217.0845 338.9569,216.7936 339.0439,216.4875 339.0872,216.1722 339.0859,215.8539 339.0401,215.539 338.778,214.3368 338.6402,213.9118 336.7204,209.519 333.9599,202.7715 330.5387,194.1448 326.6533,184.1556 322.5125,173.3539 323.8773,170.7682 327.5797,168.8147 332.9636,168.1952 339.6443,168.7957 347.1558,170.2638 355.0805,172.1623 355.0901,172.1646 363.0118,174.0257 363.1288,174.05 370.654,175.4043 370.9258,175.4364 377.7076,175.8257 377.9762,175.8252 378.2429,175.793 383.9343,174.7589 384.2653,174.6726 384.5796,174.5374 384.8699,174.3565 388.5123,171.6858 388.779,171.4564 389.007,171.1885 389.1908,170.8886 389.3261,170.5639 390.6007,166.6783 390.6784,166.3701 390.7122,166.0541 390.7015,165.7364 390.5152,163.9496 391.3981,165.7122 395.607,174.47 395.6163,174.4892 400.0084,183.4118 400.0452,183.4833 404.5394,191.8509 404.6238,191.9951 409.147,199.1048 409.3494,199.3759 413.8284,204.5246 414.1023,204.7904 414.4169,205.0066 418.7787,207.4913 419.1116,207.6467 419.4653,207.7463 419.8304,207.7875 423.6932,207.9081 424.0428,207.892 424.3858,207.8223 424.714,207.7006 427.8016,206.2761 428.0966,206.1124 428.364,205.9068 428.5979,205.6637 430.9955,202.7696 431.1896,202.4964 431.3414,202.1976 433.134,197.9095 433.2532,197.5369 434.5261,191.9304 434.5656,191.7038 435.4038,184.8543 435.4164,184.7169 435.9052,176.7001 435.9087,176.6179 436.1331,167.5093 436.1337,167.4636 436.1789,157.3387 436.1751,157.1963 435.5234,146.0466 435.5046,145.8587 433.8127,133.9973 433.792,133.8759 431.4064,121.8608 431.3895,121.7829 428.6568,110.1719 428.6459,110.1276 425.9127,99.4788 425.9101,99.4688 423.5286,90.3618 422.8315,87.4617 425.6664,93.8115 429.4499,103.2334 433.5588,114.2226 437.839,126.319 442.1391,139.0686 446.3091,152.0192 450.1869,164.6795 453.1941,176.7266 455.0777,188.061 456.1429,198.4874 456.6847,207.767 456.999,215.6501 457.0016,215.7002 457.3869,221.9096 457.4174,222.1651 458.1738,226.4308 458.2528,226.7442 458.3754,227.0431 458.5393,227.3215 459.9678,229.3947 460.1655,229.6426 460.3959,229.8606 460.6545,230.0442 460.9361,230.19 461.2354,230.295 461.5463,230.3573 461.8629,230.3756 462.179,230.3496 464.5804,229.9812 464.9208,229.9017 465.245,229.7708 465.5452,229.5917 465.8143,229.3686 466.0459,229.1067 468.6096,225.7135 468.7591,225.4889 468.8809,225.2482 468.9733,224.9948 470.8824,218.5959 470.9424,218.3421 472.4884,209.5925 472.5008,209.5149 473.9742,199.0763 475.6613,187.6385 477.8449,175.8853 480.8013,164.4825 484.7866,154.1085 490.0417,145.3943 496.0904,139.0901 502.2066,135.1876 508.3171,133.1307 514.3838,132.4245 520.3202,132.622 526.0034,133.2686 531.2081,133.8678 531.4506,133.8827 535.9409,133.9159 536.2653,133.895 536.5835,133.828 540.2106,132.7866 540.503,132.6805 540.7781,132.5353 541.0308,132.3539 541.2562,132.1396 542.7934,130.4633 542.989,130.218 543.1487,129.9481 543.2698,129.6587 543.3497,129.3554 543.387,129.0439 543.3809,128.7303 543.3317,128.4205 543.2402,128.1205 543.1081,127.836 542.9381,127.5724 541.8954,126.1783 549.3586,126.6162 559.3907,127.3766 569.4546,128.424 578.896,129.8305 587.0328,131.6539 593.1044,133.8897 596.1412,136.1487 596.4028,137.7944 594.3126,140.5343 589.2969,144.1455 582.4827,147.8902 574.9091,151.4922 567.5345,154.7692 567.5296,154.7714 561.3126,157.5516 561.1993,157.606 557.0918,159.7233 556.8299,159.8815 556.5917,160.0735 556.3815,160.2959 555.309,161.5959 555.1268,161.8506 554.9815,162.128 554.8758,162.4228 554.8117,162.7292 554.7905,163.0417 554.8125,163.354 554.8773,163.6604 554.9836,163.9549 555.1296,164.2319 555.3123,164.4862 555.5282,164.7129 555.7734,164.9077 556.0431,165.0669 556.3321,165.1874 558.3884,165.8824 558.6636,165.9565 558.9458,165.9956 563.2248,166.315 563.4643,166.3202 569.3909,166.1352 569.5834,166.121 576.5825,165.303 576.7869,165.2696 584.2835,163.6899 584.5323,163.6225 591.9513,161.1523 592.2743,161.0162 599.0408,157.5268 599.2566,157.4 599.4572,157.2501 604.996,152.6129 605.2472,152.367 605.4574,152.0853 609.1936,146.1715 609.3351,145.9111 609.3853,145.7807 613.6729,156.0202 613.7235,156.1324 618.7255,166.465 618.8352,166.6652 623.6986,174.5697 623.8136,174.7391 627.6943,179.9307 627.7708,180.0275 630.2126,182.9484 630.4561,183.1978 630.7349,183.407 632.1782,184.3255 632.4689,184.482 632.7792,184.5947 633.1027,184.661 633.4323,184.6798 633.7611,184.6504 634.0822,184.5736 634.3888,184.451 634.6743,184.2852 634.9327,184.0797 635.8176,183.2641 636.0141,183.0586 636.1835,182.8302 636.3229,182.5824 636.4302,182.3191 637.1969,180.0375 637.2115,179.9925 638.2684,176.6155 640.0146,172.4572 642.885,167.6921 647.397,162.4446 653.1063,156.8025 653.1184,156.7904 659.0389,150.8506 659.0565,150.8327 665.0115,144.7243 665.035,144.6999 670.9131,138.4872 670.943,138.455 676.6329,132.2024 676.6704,132.1602 682.0607,125.9321 682.1072,125.8766 685.4117,121.8024 685.5048,128.0061 685.5052,128.0292 685.8704,142.5375 685.8715,142.5729 686.4654,157.1283 686.4683,157.1824 687.3587,170.9341 687.3661,171.0215 688.6208,183.1189 688.643,183.2777 690.3297,192.87 690.4232,193.2275 692.6098,199.464 692.7485,199.7801 692.9335,200.0714 693.1606,200.3314 693.4245,200.5538 695.737,202.2194 696.0098,202.388 696.3036,202.5163 696.6126,202.602 696.9306,202.6432 697.2512,202.6392 697.5681,202.5899 697.8748,202.4965 698.1653,202.3607 698.4337,202.1854 698.6748,201.9739 698.8835,201.7305 700.9761,198.91 701.1728,198.5934 701.3151,198.2488 703.2976,192.0414 703.3458,191.8669 705.3283,183.3718 705.3365,183.3354 707.4243,173.6734 709.7158,163.9888 712.2921,155.4446 715.1248,149.3293 717.7551,146.8338 719.6961,146.8962 722.07,148.9534 724.7113,153.3032 727.2771,159.1246 729.7445,165.5742 729.7474,165.5815 732.1675,171.8423 732.2248,171.9773 734.6709,177.2618 734.8868,177.6318 737.4525,181.205 737.6562,181.4502 737.8922,181.6645 738.156,181.8435 738.4422,181.9838 741.2209,183.1107 741.5135,183.2069 741.8165,183.2624 742.1242,183.2764 742.431,183.2486 742.7312,183.1794 743.0192,183.0702 745.3561,181.9976 745.6644,181.8258 745.9424,181.6083 746.1832,181.3502 746.3811,181.0579 747.7473,178.6565 747.9037,178.3202 748.0032,177.9629 748.681,174.4342 748.7175,174.1445 748.9894,169.69 748.9927,169.6167 749.14,164.4663 749.4411,158.872 750.1636,153.053 751.5649,147.2019 753.9569,141.3482 756.7478,135.3072 756.7998,135.1856 759.2159,129.038 759.2288,129.0046 761.4271,123.1409 763.5677,117.9402 765.7781,113.7806 768.0899,111.01 770.4985,109.7015 773.5071,109.7093 777.7051,111.4967 782.6811,116.1348 787.7787,123.8641 792.8042,133.741 797.6198,144.7098 802.1466,155.7621 802.1481,155.7657 806.3146,165.888 806.349,165.9673 810.0888,174.1525 810.2227,174.4028 813.4802,179.67 813.6621,179.9234 813.8772,180.1495 814.1212,180.3439 814.3897,180.503 817.1091,181.8711 817.4032,181.994 817.7117,182.0745 818.0284,182.1108 818.347,182.1025 818.6613,182.0495 818.9651,181.953 819.2524,181.8148 819.5175,181.6377 819.7551,181.4253 819.9605,181.1815 820.1298,180.9114 820.2595,180.6203 821.5694,177.0178 821.6565,176.7136 821.7004,176.4001 821.7003,176.0836 821.1304,167.9893 821.1041,167.77 819.2008,156.5286 819.1859,156.4491 816.4956,143.405 816.4907,143.382 813.562,129.8896 810.9473,117.3239 809.2032,107.108 808.9693,102.8518 809.6415,103.5655 813.843,111.1067 818.9146,122.0533 824.4643,135.14 830.1808,149.2199 835.0852,161.47 834.8012,163.4883 834.7805,163.8851 834.8294,164.2795 836.2738,171.0196 836.3889,171.3945 839.2871,178.5619 839.3835,178.7694 842.9683,185.5682 843.0486,185.7082 846.5529,191.3423 846.6409,191.4735 849.2975,195.147 849.4566,195.3431 849.6366,195.5203 850.6783,196.4373 850.9407,196.6365 851.2293,196.7956 851.5379,196.9111 851.86,196.9807 852.1887,197.0029 852.5172,196.9773 852.8385,196.9043 853.1459,196.7855 853.4327,196.6234 853.6931,196.4214 853.9214,196.1839 854.113,195.9157 854.2636,195.6227 854.3702,195.3109 854.4304,194.987 854.4431,194.6577 854.408,194.3301 854.3257,194.011 854.198,193.7072 852.8614,191.079 849.4973,184.3463 845.1113,174.1291 839.9719,161.4733 839.7447,160.9058 839.9566,159.4008 842.6787,156.8716 848.2024,155.6548 855.6278,155.6692 864.2649,156.7449 873.6355,158.5807 883.303,160.8524 892.8425,163.2285 892.8642,163.2338 901.8461,165.3775 901.9344,165.3967 904.0245,165.8083 902.939,168.7703 902.9278,168.8014 901.4864,172.9188 900.2504,176.4166 899.7476,177.6995 899.7111,177.7109 899.4193,177.8507 899.1503,178.0305 898.9097,178.2468 898.7023,178.4952 898.5323,178.7705 898.4033,179.0672 898.3178,179.3793 898.2776,179.7003 898.2835,180.0238 898.3354,180.3432 898.5512,181.2551 898.6515,181.5727 898.7972,181.8721 898.9852,182.147 899.2114,182.3914 899.471,182.6 899.7583,182.7683 900.0671,182.8928 900.3909,182.9707 900.7226,183.0003 901.055,182.981 901.381,182.9133 901.6936,182.7985 901.9861,182.6392 902.252,182.4388 902.4857,182.2016 902.6822,181.9328 903.3188,180.912 903.5059,180.5395 904.4871,178.0357 904.5139,177.9638 905.7638,174.4268 905.766,174.4205 907.2031,170.3156 908.5298,166.6956 909.941,166.9735 910.148,167.0044 916.7763,167.6835 917.177,167.6889 921.7013,167.3497 921.9838,167.3106 922.2591,167.2363 922.523,167.128 924.7687,166.0367 925.0556,165.8703 925.3152,165.6638 925.5419,165.4217 925.7308,165.1491 925.878,164.8518 925.9802,164.5363 926.3705,162.9421 926.4265,162.6053 926.4313,162.2639 926.3848,161.9257 926.2881,161.5982 926.1432,161.2891 925.1013,159.441 924.8967,159.1381 924.646,158.872 922.5951,157.0193 922.2558,156.7661 919.619,155.1579 919.277,154.9871 916.4775,153.8727 916.2264,153.7893 915.9672,153.7357 913.4284,153.3642 913.0757,153.3404 912.7236,153.3717 912.3807,153.4573 910.5257,154.0777 910.2076,154.2118 909.9136,154.3926 909.6504,154.6158 909.4242,154.8765 907.9711,156.8336 907.7579,157.1825 906.1934,160.3551 906.1263,160.5046 905.7144,161.5186 902.855,160.9555 893.9279,158.8248 884.3846,156.4478 884.3552,156.4407 874.6318,154.1558 874.549,154.138 865.0594,152.2789 864.9037,152.254 856.0509,151.1514 855.775,151.134 847.9621,151.1189 847.7145,151.132 847.4699,151.172 841.0998,152.5753 840.8106,152.6595 840.535,152.7813 840.278,152.9386 840.0441,153.1285 837.5564,155.4399 834.3893,147.5291 834.3852,147.5188 828.66,133.4177 828.6466,133.3854 823.0755,120.2483 823.0454,120.1804 817.9228,109.1235 817.8462,108.973 813.4664,101.112 813.3153,100.8763 813.1363,100.661 809.7938,97.1119 809.5589,96.8953 809.2959,96.7139 809.0101,96.5712 808.707,96.4702 808.3927,96.4127 808.0735,96.4 807.7557,96.4322 807.4455,96.5088 807.1492,96.6282 806.8726,96.7881 806.6212,96.9853 806.4,97.2158 804.829,99.1031 804.632,99.3795 804.4784,99.6822 804.3718,100.0045 804.3144,100.339 804.3076,100.6783 804.6817,107.4863 804.7106,107.7435 806.4834,118.1274 806.4986,118.2078 809.1236,130.8231 809.1277,130.8421 812.056,144.3326 814.7358,157.3256 816.6139,168.4182 817.1422,175.9212 816.9023,176.5807 814.1549,172.1383 810.4922,164.1218 806.3429,154.0413 801.8061,142.9646 801.784,142.9125 796.9311,131.8587 796.8758,131.7419 791.7631,121.6937 791.6351,121.4736 786.3183,113.4119 786.157,113.1964 785.9714,113.0016 780.5062,107.9074 780.1959,107.6649 779.8483,107.4798 774.8609,105.3563 774.5757,105.2567 774.2798,105.1959 773.9784,105.175 769.9308,105.1646 769.6479,105.1815 769.3693,105.2337 769.0994,105.3202 768.8424,105.4396 765.5439,107.2317 765.3022,107.3834 765.0815,107.5643 764.8853,107.7715 762.1449,111.0556 761.8835,111.4444 759.5104,115.9101 759.4159,116.1111 757.2193,121.4479 757.193,121.515 754.9883,127.3957 752.6028,133.4651 749.8183,139.4923 749.7777,139.5855 747.3008,145.6471 747.1947,145.9767 745.7234,152.1198 745.6783,152.3685 744.9305,158.3917 744.9165,158.5493 744.6096,164.2511 744.6073,164.3081 744.4601,169.4503 744.1994,173.7223 743.6199,176.7395 742.8002,178.1804 742.0176,178.5396 740.7543,178.0272 738.6964,175.1613 736.3714,170.1386 733.9792,163.9499 731.493,157.4513 731.4501,157.347 728.8017,151.3383 728.6649,151.0759 725.7622,146.2955 725.5565,146.0095 725.309,145.7588 722.0584,142.9418 721.8116,142.7558 721.5418,142.6051 721.254,142.4924 720.9536,142.4199 720.6461,142.389 716.9543,142.2702 716.6556,142.2803 716.3609,142.3296 716.0752,142.4172 715.8035,142.5416 715.5505,142.7007 715.3206,142.8917 711.6886,146.3375 711.4943,146.5467 711.3277,146.7786 711.1917,147.0295 708.1095,153.6836 707.996,153.9821 705.3537,162.7452 705.3181,162.8777 703.0057,172.6506 702.9959,172.6938 700.9073,182.3592 698.9496,190.7479 697.1092,196.5101 696.6142,197.1774 694.7645,191.9018 693.1237,182.5712 691.8818,170.5973 690.996,156.9164 690.4039,142.4057 690.0395,127.9266 689.8609,116.0146 691.6013,113.6771 691.6726,113.5756 695.4961,107.8071 695.6784,107.4746 698.1965,101.8044 698.2992,101.5253 698.3644,101.2351 699.2242,95.7481 699.2503,95.4742 699.2429,95.1993 698.8112,90.2659 698.7715,89.998 698.7001,89.7367 697.3434,85.7275 697.2169,85.4267 697.0484,85.1472 695.1335,82.4326 694.894,82.1464 694.6109,81.9034 694.2917,81.7101 692.1852,80.6605 691.9061,80.5439 691.614,80.4656 691.3141,80.4268 691.0117,80.4283 690.7121,80.47 690.4208,80.5512 690.1429,80.6704 688.2115,81.6563 687.936,81.8225 687.6868,82.0261 687.469,82.2628 687.2868,82.5281 687.144,82.8164 685.7544,86.2082 685.6466,86.5436 685.592,86.8916 685.1109,93.0599 685.1041,93.2571 685.1896,102.5202 685.3005,114.3827 685.3006,114.3955 685.3028,114.5419 683.5345,116.9169 678.6076,122.9915 673.2595,129.1708 667.6035,135.3861 661.7521,141.5705 655.8178,147.6577 649.9122,153.5826 644.1436,159.2834 644.0181,159.4179 639.3216,164.8799 639.0986,165.1882 636.0448,170.2576 635.8965,170.5497 634.0453,174.9581 633.972,175.1587 632.8902,178.6152 632.7788,178.9467 631.2901,177.1658 627.5077,172.1057 622.7579,164.3859 617.8326,154.2117 612.8715,142.3637 610.8106,136.9622 609.8654,128.213 609.7997,127.8639 607.1734,118.1647 607.1065,117.9578 603.4361,108.2166 603.3811,108.0837 599.2801,98.9923 599.2367,98.9016 595.3188,91.1522 595.2853,91.0885 592.164,85.3731 592.1419,85.3336 591.0851,83.4871 590.8318,82.9428 590.6073,82.5623 590.2944,82.1336 590.083,81.884 589.838,81.6675 589.5643,81.4885 589.2678,81.3506 588.9545,81.2569 588.631,81.2092 588.304,81.2085 587.9803,81.2549 587.6666,81.3473 587.3695,81.4839 587.0951,81.6618 586.8492,81.8773 586.6368,82.1259 586.4624,82.4025 586.3296,82.7013 586.2411,83.0161 586.1988,83.3404 586.2036,83.6674 586.2554,83.9903 586.3531,84.3023 586.4946,84.5971 587.0537,85.5739 588.6862,89.0827 591.5047,96.6135 595.0656,106.7298 599.204,118.5503 599.2107,118.5693 603.7781,131.2525 603.793,131.2926 606.2323,137.6858 605.1186,144.13 601.8125,149.363 596.7385,153.6111 590.3518,156.9046 583.222,159.2785 575.9531,160.8103 569.1529,161.605 563.4428,161.7832 563.0512,161.754 563.2214,161.6662 569.3787,158.9127 576.7775,155.625 576.8306,155.6006 584.4906,151.9574 584.6088,151.8969 591.6021,148.0538 591.8349,147.9068 597.2362,144.018 597.4923,143.8032 597.7141,143.5531 600.5979,139.773 600.7665,139.5181 600.8993,139.2427 600.9938,138.9521 601.0484,138.6513 601.0621,138.346 601.0345,138.0415 600.4754,134.5244 600.3937,134.1836 600.2606,133.8594 600.079,133.5595 599.8535,133.2913 599.5893,133.061 595.5487,130.0553 595.2749,129.8806 594.9788,129.7468 588.459,127.3459 588.1712,127.2611 579.8074,125.3868 579.6457,125.3567 570.0733,123.9307 569.974,123.9181 559.8285,122.8622 559.7652,122.8565 549.682,122.0923 549.6435,122.0897 540.2581,121.539 540.2421,121.5381 532.1982,121.1231 526.1273,120.7653 523.0471,120.5714 522.7255,120.574 522.4076,120.6221 522.0996,120.7147 521.8079,120.8498 521.5381,121.0249 521.2959,121.2364 521.086,121.48 520.9127,121.7508 520.7794,122.0435 520.6889,122.352 520.6637,122.4674 520.6171,122.7947 520.6186,123.1253 520.6681,123.4522 520.7646,123.7685 520.9061,124.0673 521.0896,124.3424 521.3111,124.5879 521.5659,124.7985 521.8487,124.9699 522.1533,125.0983 522.4735,125.1811 524.6868,125.5839 528.2882,126.2468 532.4251,127.1386 536.2214,128.2113 537.585,128.8218 535.6469,129.3782 531.6059,129.3483 526.5207,128.7628 526.5177,128.7624 520.7427,128.1054 520.5618,128.0921 514.3652,127.8859 514.0276,127.8999 507.5566,128.6531 507.0953,128.7564 500.497,130.9776 500.2416,131.0812 500.0007,131.2151 493.4221,135.4126 493.2037,135.571 493.0056,135.7543 486.594,142.4367 486.4301,142.6277 486.2884,142.8357 480.7995,151.9376 480.6246,152.2954 476.5215,162.9758 476.4433,163.2199 473.4347,174.8239 473.4002,174.9789 471.1945,186.8516 471.1806,186.9349 469.4863,198.4214 469.4843,198.4354 468.0154,208.842 466.4989,217.4244 464.7441,223.306 462.9823,225.6378 462.8961,225.6511 462.5536,225.1539 461.9057,221.5001 461.5299,215.4443 461.2157,207.5654 461.2137,207.5235 460.6678,198.1738 460.6599,198.0755 459.5824,187.5291 459.5634,187.3878 457.6533,175.8936 457.6165,175.7162 454.5729,163.5232 454.541,163.4083 450.6409,150.6754 450.6312,150.6445 446.4515,137.6636 446.4417,137.6339 442.1312,124.8536 442.1202,124.8219 437.8278,112.6908 437.814,112.653 433.6885,101.6195 433.6688,101.5686 429.8591,92.0813 429.8254,92.0019 426.4804,84.5093 426.4042,84.3548 423.6726,79.3055 423.5265,79.0709 423.3529,78.8557 421.3837,76.6983 421.1482,76.4748 420.8832,76.2872 420.5941,76.1394 420.2869,76.0344 419.9679,75.9743 419.6435,75.9604 419.3205,75.9929 419.0054,76.0713 418.7047,76.1938 418.4246,76.358 418.1709,76.5606 417.9487,76.7973 417.7625,77.0633 417.0324,78.2842 416.8915,78.5615 416.7898,78.8555 416.7293,79.1606 416.7111,79.4711 416.7356,79.7812 417.3911,84.196 417.4293,84.3929 419.124,91.4437 419.135,91.4875 421.5209,100.6113 424.2472,111.2331 426.9656,122.7831 429.3314,134.6988 431.0012,146.4056 431.6432,157.3897 431.5985,167.4205 431.3756,176.4651 430.8936,184.3719 430.0777,191.0385 428.8738,196.3413 427.2873,200.1365 425.4339,202.3736 423.2999,203.3582 420.5345,203.2718 416.9971,201.2567 412.8826,196.5271 408.4954,189.6312 404.0598,181.3727 399.6902,172.4958 395.4779,163.731 395.4616,163.6977 391.493,155.7742 391.4333,155.6629 387.7862,149.2936 387.5968,149.0136 384.3442,144.9013 384.1653,144.7008 383.9639,144.5228 382.0989,143.0621 381.8276,142.8796 381.5328,142.7379 381.2208,142.6402 380.8979,142.5883 380.5709,142.5834 380.2466,142.6256 379.9318,142.714 379.6329,142.8467 379.3563,143.0211 379.1076,143.2334 378.892,143.4793 378.7141,143.7537 378.5774,144.0508 378.4849,144.3645 378.4385,144.6882 378.4391,145.0152 378.4975,145.8021 378.543,146.1162 378.632,146.4209 378.7627,146.7101 380.1314,149.25 380.1356,149.2578 382.1704,152.9987 384.2365,157.3818 385.7364,161.85 386.1403,165.7248 385.2435,168.4586 382.6095,170.3899 377.6979,171.2823 371.3225,170.9163 363.991,169.5968 356.1323,167.7505 348.166,165.8421 348.0727,165.8218 340.3992,164.322 340.1672,164.2889 333.1382,163.6572 332.676,163.663 326.6386,164.3576 326.3627,164.4068 326.095,164.4896 325.8396,164.6048 321.1407,167.0841 320.853,167.2646 320.5956,167.4861 320.3842,167.7317 318.2613,162.1232 314.139,151.0932 310.3219,140.7296 307.0293,131.6142 304.9423,124.007 304.247,117.7316 304.486,112.7814 304.9809,110.4168 305.1765,110.1103 305.309,109.8721 306.5745,107.2371 306.7099,106.8814 306.7839,106.508 306.8813,105.6395 306.8942,105.3144 306.8605,104.9907 306.7808,104.6753 306.6568,104.3744 306.4911,104.0945 306.2869,103.8411 306.0486,103.6196 305.7811,103.4344 305.4898,103.2894 305.1807,103.1877 304.8603,103.1311 304.5351,103.1211 304.2118,103.1576 303.897,103.2401 303.5973,103.3668 303.3188,103.535 303.0673,103.7414 302.8479,103.9816 302.2089,104.7909 302.0225,105.0663 301.8784,105.366 300.9351,107.7642 300.8258,108.1298 300.7115,108.6761 298.4877,112.1607 298.4341,112.2491 294.4934,119.0932 294.3958,119.283 290.2155,128.4395 290.1788,128.5245 285.7928,139.2726 285.7813,139.3012 281.2259,150.9139 276.543,162.6496 271.7774,173.7665 266.9827,183.518 262.2581,191.1174 257.7847,195.818 254.6225,197.3885 253.256,197.1306 251.9561,195.363 250.7075,191.2539 249.7136,185.418 248.7949,178.4563 248.7908,178.4267 247.6899,170.8548 247.6689,170.7336 246.1142,163.0105 246.0592,162.7934 243.7804,155.3594 241.692,147.9759 240.5608,140.234 240.0043,132.4131 239.6711,125.0051 239.6674,124.9413 239.1925,118.4594 239.1569,118.1922 238.1713,113.1253 238.0672,112.7582 237.9031,112.4138 236.0366,109.221 235.8371,108.9333 235.5956,108.6797 235.318,108.4663 235.0109,108.2982 234.6815,108.1793 231.5638,107.3198 231.2725,107.2598 230.9758,107.2383 230.6789,107.2559 230.3869,107.3122 230.1047,107.4062 225.3654,109.3392 225.0599,109.4915 224.7807,109.6881 218.6622,114.7239 218.4026,114.9749 211.6067,122.6808 211.4812,122.8364 204.3264,132.5565 204.2509,132.6656 197.0557,143.7438 197.0019,143.8308 190.0848,155.6114 190.0403,155.6907 189.7119,156.3052 189.6214,156.2733 189.2551,156.2091 184.4321,155.7657 184.1187,155.7586 183.8074,155.7949 183.504,155.8737 183.2143,155.9936 177.9633,158.6063 177.675,158.7774 177.4151,158.9891 177.1893,159.2369 172.1224,165.6959 171.9655,165.9231 171.8374,166.1677 167.3973,176.0702 167.3119,176.2908 163.3095,188.4839 163.2813,188.5765 159.5274,201.9074 159.5251,201.9158 155.841,215.1942 152.0605,227.2033 148.0618,236.6878 144.0012,242.2348 140.3919,243.4004 136.4304,240.7713 132.2766,233.5069 128.5164,222.606 125.2248,209.378 122.3157,195.0003 119.6715,180.6046 119.6696,180.5944 117.1673,167.3139 117.1511,167.2356 114.6647,156.1942 114.6009,155.9667 112.0008,148.2687 111.8591,147.9383 111.667,147.6344 109.5543,144.8152 109.3441,144.5726 109.1018,144.3621 108.8323,144.188 108.5505,144.0581 108.3576,132.3417 108.3569,132.3109 107.9232,117.8852 107.9204,117.8221 107.0955,103.5868 107.0868,103.4809 105.6839,90.1357 105.6587,89.9615 103.491,78.206 103.4146,77.9076 100.2955,68.4414 100.1349,68.0696 96.488,61.3485 96.3551,61.1333 96.1992,60.9342 92.5586,56.7859 92.3509,56.578 92.118,56.3988 91.8639,56.2512 88.2084,54.4334 87.9288,54.317 87.6362,54.2388 87.3358,54.2004 87.0329,54.2023 83.3412,54.4729 83.0119,54.5215 82.6932,54.6179 82.3921,54.7598 78.6429,56.8765 78.3989,57.0358 78.1773,57.225 74.3493,60.9456 74.1356,61.185 70.2076,66.2672 70.103,66.4141 66.0537,72.6157 66.0012,72.7001 61.8093,79.7788 61.6894,80.0108 58.0869,88.0903 57.9693,88.4208 55.5018,97.5294 55.454,97.7478 53.8203,107.5009 53.8028,107.6277 52.7016,117.6408 52.6968,117.69 51.8283,127.5647 50.8962,136.8698 49.615,145.1657 47.7339,152.0029 45.1194,156.9058 42.6152,158.8868 40.6013,158.7565 37.9145,156.7857 34.8797,153.0123 31.9005,148.2303 29.1411,143.235 26.7161,138.8226 26.6259,138.6725 24.6326,135.6286 24.4358,135.3705 24.2042,135.1431 23.9425,134.9511 22.452,134.0139 22.1573,133.8576 21.843,133.7462 21.5156,133.6822 21.1824,133.6668 20.8506,133.7005 20.5273,133.7825 20.2195,133.911 19.9339,134.0833 19.6767,134.2956 19.4534,134.5434 19.2688,134.8212 19.127,135.1231 18.5962,136.51 18.5027,136.8183 18.4538,137.1367 18.4506,137.4589 18.493,137.7783 19.1257,140.8487 19.2087,141.1471 20.6948,145.35 20.7451,145.4796 22.7745,150.2637 22.8098,150.3427 25.0724,155.157 25.1039,155.2213 27.2897,159.5146 27.3307,159.5914 29.1296,162.8125 29.2426,162.9942 30.3445,164.5921 30.542,164.8395 30.7719,165.057 31.03,165.2404 31.311,165.386 31.6096,165.4911 31.9199,165.5536 32.2359,165.5723 32.5514,165.5467 32.8603,165.4775 33.1566,165.366 33.4344,165.2143 33.6884,165.0254 33.9136,164.803 34.1057,164.5513 34.2608,164.2754 34.376,163.9806 34.449,163.6726 34.5438,163.096 34.5734,162.7738 34.5568,162.4507 34.4945,162.1332 34.3875,161.8278 34.2382,161.5408 34.0496,161.2779 33.8254,161.0445 33.5704,160.8455 33.2896,160.6847 33.1103,160.6137 33.0371,160.5076 31.3117,157.418 29.1619,153.1955"/>
    <polygon points="191.411,162.7484 191.8365,163.0297 195.2574,167.2426 198.2386,172.725 200.606,178.7846 202.2515,184.7292 203.0932,189.8383 203.1003,193.1286 201.8941,195.5553 198.7916,198.5038 194.2546,201.4318 189.02,203.8376 183.8158,205.3355 179.4531,205.6242 176.7598,204.7279 175.5033,202.763 175.769,198.212 178.2694,190.5476 182.3827,180.7353 187.742,169.6137"/>
    <polygon points="689.7785,108.224 689.7248,102.4782 689.6403,93.3141 690.0861,87.5987 691.0222,85.3137 691.1862,85.23 691.7571,85.5144 693.1527,87.4929 694.3167,90.9326 694.7007,95.3192 693.93,100.2372 691.6106,105.46"/>
    <polygon points="910.2471,162.4112 910.2974,162.2875 911.7348,159.3725 912.6405,158.1528 913.3065,157.9301 915.0472,158.1848 917.4212,159.1299 919.7127,160.5275 921.3319,161.9901 921.6302,162.5192 920.9303,162.8594 917.0384,163.1512 910.7145,162.5033"/>
  </g>
</svg>
