<?xml version="1.0" encoding="utf-8" ?>
<svg xmlns="http://www.w3.org/2000/svg" xmlns:cc="http://creativecommons.org/ns" xmlns:dc="http://purl.org/dc/elements/1.1/" xmlns:ev="http://www.w3.org/2001/xml-events" xmlns:inkscape="http://www.inkscape.org/namespaces/inkscape" xmlns:rdf="http://www.w3.org/1999/02/22-rdf-syntax-ns" xmlns:sodipodi="http://sodipodi.sourceforge.net/DTD/sodipodi-0.dtd" xmlns:xlink="http://www.w3.org/1999/xlink" baseProfile="tiny" height="8.0cm" version="1.2" viewBox="0 0 944.8818897637797 302.3622047244095" width="25.0cm">
  <metadata>
    <rdf:RDF>
      <cc:Work>
        <dc:format>image/svg+xml</dc:format>
        <dc:source>Generated with vsketch</dc:source>
        <dc:date>2025-03-27T19:39:27.571405</dc:date>
      </cc:Work>
    </rdf:RDF>
  </metadata>
  <defs/>
  <g fill="none" id="layer1" inkscape:groupmode="layer" inkscape:label="1" stroke="#0000ff" style="display:inline">
    <polyline points="-46.65,147.5476 -33.4617,142.8483 -14.029,140.5544 9.8193,140.2928 36.2547,141.6906 63.4484,144.3747 89.5719,147.9722 112.7965,152.11 131.2936,156.4151 143.2346,160.5147 143.2346,160.5147 146.3177,165.0367 140.9225,170.5249 129.2422,176.4794 113.4699,182.4006 95.7988,187.7888 78.4221,192.1442 63.5329,194.967 53.3245,195.7576 49.9899,194.0161 49.9899,194.0161 52.268,189.4212 57.304,182.4295 64.901,173.7081 74.862,163.9244 86.9903,153.7457 101.0887,143.8392 116.9604,134.8724 134.4085,127.5124 153.236,122.4266 153.236,122.4266 173.3276,120.1824 194.1018,120.5343 214.6633,122.93 234.1163,126.8174 251.5653,131.6441 266.1147,136.858 276.8689,141.9069 282.9322,146.2385 283.4092,149.3006 283.4092,149.3006 275.7094,151.1601 259.5302,152.3197 237.4073,152.8806 211.8766,152.9441 185.4739,152.6115 160.7349,151.9841 140.1955,151.1632 126.3914,150.2501 121.8585,149.346 121.8585,149.346 127.6219,148.5485 141.6235,147.8369 161.7737,147.1357 185.9829,146.3693 212.1619,145.462 238.2209,144.3382 262.0707,142.9223 281.6216,141.1388 294.7843,138.9119 294.7843,138.9119 300.5617,136.6852 300.2017,134.8479 294.9815,133.2425 286.1782,131.7114 275.0693,130.0973 262.932,128.2426 251.0436,125.99 240.6813,123.1819 233.1224,119.661 233.1224,119.661 228.851,114.7174 227.044,108.2995 227.0183,101.2365 228.0906,94.3577 229.5775,88.4925 230.7959,84.4701 231.0625,83.1198 229.6939,85.271 226.007,91.753 226.007,91.753 219.9081,102.8938 212.2215,117.6976 203.641,135.008 194.8603,153.6684 186.5733,172.5226 179.4736,190.4139 174.255,206.186 171.6114,218.6823 172.2364,226.7466 172.2364,226.7466 175.2827,229.286 179.5407,226.7083 185.1606,220.108 192.2926,210.579 201.0871,199.2158 211.6942,187.1126 224.2643,175.3635 238.9475,165.0629 255.8942,157.305 255.8942,157.305 274.1204,151.8062 292.3126,147.5572 310.1264,144.5636 327.2175,142.8312 343.2414,142.3656 357.8537,143.1725 370.7102,145.2576 381.4664,148.6264 389.778,153.2848 389.778,153.2848 394.8013,160.095 396.2006,169.286 394.3934,179.9135 389.797,191.0333 382.8288,201.701 373.9064,210.9723 363.4472,217.903 351.8685,221.5486 339.5879,220.9649 339.5879,220.9649 326.1748,215.0581 311.4592,204.3372 296.2494,190.262 281.3535,174.2925 267.5796,157.8886 255.736,142.5103 246.6307,129.6174 241.072,120.67 239.868,117.1279 239.868,117.1279 243.4886,120.3841 251.3144,129.6883 262.52,143.2853 276.2799,159.4201 291.7686,176.3375 308.1605,192.2825 324.6301,205.4998 340.352,214.2345 354.5006,216.7313 354.5006,216.7313 366.9717,212.2069 378.054,202.0694 387.5114,187.8509 395.1077,171.0837 400.6068,153.2999 403.7727,136.0317 404.3692,120.8113 402.1603,109.1709 396.9097,102.6425 396.9097,102.6425 387.9815,101.7834 375.5475,105.4679 360.5831,112.7046 344.0643,122.5019 326.9665,133.8682 310.2656,145.8121 294.9371,157.3418 281.9568,167.466 272.3002,175.1929 272.3002,175.1929 265.7122,180.4954 261.3735,184.1219 259.4138,186.2441 259.9627,187.0341 263.15,186.6637 269.1054,185.3049 277.9585,183.1295 289.839,180.3095 304.8765,177.0168 304.8765,177.0168 321.9408,172.6875 339.7199,166.9962 358.0713,160.4729 376.8523,153.6474 395.9204,147.0496 415.1331,141.2092 434.3477,136.6562 453.4217,133.9205 472.2125,133.5318 472.2125,133.5318 488.8178,136.0021 501.7403,141.0218 511.4445,147.8887 518.3948,155.9006 523.0557,164.3551 525.8919,172.55 527.3677,179.7831 527.9478,185.352 528.0966,188.5546 528.0966,188.5546 526.824,189.105 523.1669,187.4966 517.631,184.1956 510.7218,179.6682 502.9448,174.3807 494.8055,168.7995 486.8094,163.3906 479.462,158.6204 473.2689,154.9552 473.2689,154.9552 469.0542,152.2174 466.926,149.9615 466.3163,148.2519 466.6569,147.1528 467.3795,146.7286 467.916,147.0435 467.6983,148.1619 466.1581,150.1481 462.7274,153.0664 462.7274,153.0664 456.7178,157.7702 448.5226,164.496 439.1957,172.3822 429.7908,180.5673 421.362,188.1898 414.9629,194.3882 411.6476,198.301 412.4698,199.0667 418.4833,195.8238 418.4833,195.8238 429.412,188.1663 443.7318,176.958 460.6253,163.2413 479.275,148.0589 498.8634,132.4535 518.573,117.4676 537.5863,104.1437 555.0859,93.5247 570.2543,86.6529 570.2543,86.6529 581.5185,84.0245 588.4009,85.0171 591.7272,88.9956 592.3231,95.3253 591.0143,103.3711 588.6266,112.4982 585.9857,122.0715 583.9172,131.4563 583.2469,140.0174 583.2469,140.0174 582.7771,148.2687 581.0717,156.8078 578.5995,165.1259 575.829,172.7144 573.2288,179.0645 571.2675,183.6674 570.4137,186.0145 571.1361,185.5969 573.9031,181.9059 573.9031,181.9059 579.0981,174.1596 586.2978,162.6793 594.7614,148.6113 603.7479,133.1018 612.5165,117.297 620.3264,102.3433 626.4366,89.3868 630.1063,79.5738 630.5945,74.0506 630.5945,74.0506 627.0751,73.0762 619.926,75.745 610.2122,81.4559 598.9985,89.608 587.3502,99.6002 576.3321,110.8316 567.0094,122.7011 560.4469,134.6078 557.7098,145.9506 557.7098,145.9506 559.5275,156.1672 565.2171,165.1752 573.7251,173.0934 583.998,180.0408 594.9821,186.1363 605.6241,191.4988 614.8703,196.2472 621.6673,200.5004 624.9615,204.3774 624.9615,204.3774 624.0097,207.3205 619.45,208.7943 612.3,208.9501 603.5778,207.9394 594.3012,205.9138 585.4882,203.0247 578.1566,199.4237 573.3244,195.2622 572.0094,190.6917 572.0094,190.6917 574.0394,185.6612 578.2811,180.1685 584.3114,174.4388 591.7072,168.6971 600.0452,163.1683 608.9024,158.0776 617.8556,153.6499 626.4817,150.1104 634.3574,147.6839 634.3574,147.6839 641.1684,146.8045 646.9083,147.5304 651.6155,149.5235 655.3284,152.4456 658.0854,155.9584 659.9249,159.7238 660.8854,163.4035 661.0053,166.6594 660.323,169.1533 660.323,169.1533 657.3389,170.6334 651.3042,171.2379 643.384,171.2137 634.7434,170.8075 626.5474,170.2661 619.9611,169.8365 616.1495,169.7652 616.2777,170.2993 621.5108,171.6855 621.5108,171.6855 632.0643,174.1054 646.5781,177.3331 663.8541,181.0035 682.6938,184.7517 701.8991,188.2127 720.2715,191.0217 736.6129,192.8137 749.7249,193.2237 758.4092,191.8869 758.4092,191.8869 761.7974,189.0859 760.4287,185.4136 755.2162,180.9697 747.0733,175.8543 736.913,170.1674 725.6487,164.0087 714.1935,157.4783 703.4607,150.6762 694.3634,143.7021 694.3634,143.7021 686.1901,137.2661 677.9672,131.8834 670.2148,127.362 663.453,123.5098 658.202,120.1349 654.9818,117.0452 654.3127,114.0487 656.7147,110.9533 662.7079,107.5671 662.7079,107.5671 672.6054,103.9557 685.7489,100.4771 701.201,97.3778 718.0245,94.9043 735.2822,93.3033 752.0368,92.8213 767.3511,93.7048 780.2879,96.2004 789.9099,100.5547 789.9099,100.5547 795.0182,106.418 795.6672,113.1704 792.7997,120.6527 787.3582,128.7055 780.2853,137.1697 772.5239,145.8861 765.0164,154.6955 758.7055,163.4386 754.534,171.9562 754.534,171.9562 753.0185,179.6866 753.5781,186.1987 755.5087,191.5295 758.1063,195.716 760.6668,198.795 762.4862,200.8036 762.8606,201.7788 761.0858,201.7574 756.4578,200.7764 756.4578,200.7764 748.2221,198.3451 736.9383,194.2348 723.8738,188.8755 710.2959,182.6973 697.4721,176.1303 686.6695,169.6045 679.1555,163.55 676.1976,158.3969 679.063,154.5752 679.063,154.5752 687.5543,152.7997 700.0757,153.1091 715.7974,154.9199 733.8893,157.6483 753.5213,160.7106 773.8636,163.5231 794.0861,165.5022 813.3588,166.0641 830.8517,164.6252 830.8517,164.6252 845.2831,160.7824 856.2374,155.0153 864.1839,148.0643 869.5919,140.6702 872.9307,133.5733 874.6695,127.5142 875.2777,123.2334 875.2245,121.4715 874.9793,122.9689 874.9793,122.9689 872.6544,127.8786 866.8435,135.4117 858.7379,144.8956 849.5291,155.6581 840.4085,167.0266 832.5672,178.3287 827.1968,188.8919 825.4886,198.044 828.634,205.1123 828.634,205.1123 837.5118,209.621 851.149,211.7896 867.9591,211.9889 886.3558,210.5897 904.7525,207.963 921.5628,204.4796 935.2001,200.5103 944.0782,196.4259 946.6104,192.5975 946.6104,192.5975 940.8577,189.1159 927.4804,185.7886 908.7909,182.5603 887.1017,179.3761 864.7255,176.1809 843.9747,172.9196 827.1618,169.5372 816.5995,165.9786 814.6001,162.1889 814.6001,162.1889 821.7504,158.841 835.9184,156.4719 855.338,154.8224 878.2433,153.633 902.8683,152.6445 927.4469,151.5975 950.2134,150.2328 969.4016,148.291 983.2457,145.5128 983.2457,145.5128 990.3903,141.6433 991.5319,136.9361 987.982,131.8943 981.0519,127.0211 972.0531,122.8196 962.297,119.7931 953.0951,118.4446 945.7589,119.2775 941.5997,122.7947 941.5997,122.7947 940.0572,129.7044 939.6189,139.671 940.1678,151.6328 941.587,164.5279 943.7594,177.2946 946.5682,188.8708 949.8965,198.1949 953.6272,204.205 957.6435,205.8392"/>
  </g>
</svg>
