<?xml version="1.0" encoding="utf-8" ?>
<svg xmlns="http://www.w3.org/2000/svg" xmlns:cc="http://creativecommons.org/ns" xmlns:dc="http://purl.org/dc/elements/1.1/" xmlns:ev="http://www.w3.org/2001/xml-events" xmlns:inkscape="http://www.inkscape.org/namespaces/inkscape" xmlns:rdf="http://www.w3.org/1999/02/22-rdf-syntax-ns" xmlns:sodipodi="http://sodipodi.sourceforge.net/DTD/sodipodi-0.dtd" xmlns:xlink="http://www.w3.org/1999/xlink" baseProfile="tiny" height="8.0cm" version="1.2" viewBox="0 0 944.8818897637797 302.3622047244095" width="25.0cm">
  <metadata>
    <rdf:RDF>
      <cc:Work>
        <dc:format>image/svg+xml</dc:format>
        <dc:source>Generated with vsketch</dc:source>
        <dc:date>2025-03-27T19:34:55.753457</dc:date>
      </cc:Work>
    </rdf:RDF>
  </metadata>
  <defs/>
  <g fill="none" id="layer2" inkscape:groupmode="layer" inkscape:label="2" stroke="#0000ff" style="display:inline">
    <polyline points="62.4253,151.9404 66.9609,145.0195 71.31,138.4406 75.3325,132.5557 78.8993,127.68 81.9008,124.0787 84.2527,121.9546 85.901,121.4387 86.8253,122.5849 87.0397,125.3669 86.593,129.6801 85.5661,135.3468 84.0693,142.1246 82.2366,149.7185 80.2199,157.7952 78.1819,165.9992 76.2884,173.9699 74.7009,181.3592 73.5687,187.8482 73.0217,193.1624 73.1644,197.0851 74.0709,199.468 75.7807,200.2376 78.297,199.3993 81.5858,197.0366 85.5777,193.3073 90.1699,188.4351 95.2315,182.6993 100.6084,176.4206 106.1306,169.9456 111.6196,163.6301 116.8961,157.8213 121.7885,152.8413 126.1401,148.9708 129.8167,146.436 132.7123,145.3969 134.7541,145.94 135.9061,148.0738 136.1704,151.7284 135.5878,156.7586 134.236,162.9516 132.2263,170.0368 129.6993,177.6996 126.8187,185.5963 123.7647,193.3717 120.7265,200.6765 117.8947,207.1852 115.4538,212.6122 112.9391,216.2847 111.2596,218.5543 110.5475,219.3438 168.4336,207.8614 170.3004,201.1657 170.8488,195.3122 170.2741,190.7517 168.9102,187.8409 167.18,186.8025 165.534,187.7035 164.3885,190.4581 164.8888,194.7263 165.0042,200.5059 166.3854,207.2614 168.9396,214.5714 172.4819,222.0231 176.7641,229.2268 181.5003,235.8269 186.3899,241.5111 191.1365,246.0198 195.4661,249.1521 199.141,250.7719 201.972,250.811 203.8274,249.2701 204.6376,246.2174 204.3984,241.7841 203.169,236.1584 201.0679,229.5761 198.2652,222.31 194.9735,214.6577 191.4349,206.9282 187.9085,199.4284 184.656,192.4492 181.9278,186.2533 179.9492,181.0635 178.9091,177.0532 178.9491,174.3394 180.1565,172.9775 182.5592,172.9601 186.124,174.2175 190.7579,176.6212 196.3123,179.9911 202.5906,184.1035 209.3579,188.7021 216.3524,193.5099 223.2983,198.2421 229.9204,202.6197 235.9569,206.3819 241.1735,209.2982 245.3747,211.1791 248.4138,211.8843 250.2009,211.3295 250.7073,209.4896 249.9675,206.3996 248.0777,202.153 245.1913,196.897 241.5117,190.8259 237.2829,184.1714 232.7769,177.1923 227.3136,171.012 222.9491,164.3315 218.9644,158.2888 215.5976,153.1331 213.0597,149.0682 211.5247,146.2427 211.1208,144.7423 211.924,144.5861 213.9535,145.7266 217.1696,148.0522 221.4744,151.3943 226.7146,155.5366 232.6877,160.2275 239.1498,165.1935 245.8264,170.1543 252.4248,174.8375 258.6477,178.9925 264.2082,182.4027 268.8446,184.8957 272.3343,186.3496 274.5068,186.6974 275.2543,185.9272 274.5387,184.0801 272.3957,181.2453 268.9346,177.5532 264.3342,173.1676 258.8338,168.2764 252.7219,163.0834 246.321,157.799 239.9708,152.632 234.0104,147.7823 228.7603,143.4334 224.5056,139.7463 221.481,136.8537 219.859,134.8547 219.7413,133.811 221.1538,133.7432 224.0464,134.6298 228.2959,136.4061 233.7132,138.9661 240.0533,142.1657 247.0284,145.8279 254.3226,149.75 261.6082,153.7122 268.5614,157.4872 274.8788,160.8513 280.2919,163.5948 284.5794,165.533 286.9863,167.3119 289.3153,166.1893 290.0566,164.0724 289.1947,161.0596 286.8039,157.2671 283.0411,152.8281 278.1347,147.8912 272.3721,142.6167 266.084,137.1721 259.6273,131.7269 253.3672,126.447 247.6588,121.4892 242.8293,116.9949 239.1618,113.0859 236.8813,109.8588 236.1439,107.3824 237.0286,105.6942 239.5339,104.7993 243.5779,104.6702 249.0022,105.2476 255.58,106.4429 263.0275,108.1414 271.0177,110.2066 279.1971,112.4857 287.2034,114.8152 294.6834,117.0274 301.3112,118.9565 306.8048,120.4452 310.9409,121.3506 313.5668,121.5492 314.6093,120.9423 314.0798,119.4591 312.0754,117.0595 308.7772,113.7362 304.4434,109.515 299.4006,104.4556 294.032,98.6511 288.7633,92.2289 284.0469,85.3535 280.3438,78.2329 278.1007,71.1321 277.7157,64.3955 279.4785,58.4776 283.467,53.9661 289.3892,51.5512 296.424,51.8655 303.2331,55.1672 308.3265,61.0525 306.2019,66.238 307.5435,74.6233 305.2623,82.5798 300.5094,89.4291 294.3935,95.0529 287.8015,99.5617 281.4189,103.1228 275.7785,105.8987 271.2916,108.0314 268.2634,109.6428 266.899,110.8385 267.3054,111.7115 269.4934,112.3448 273.3817,112.8135 278.8032,113.186 285.5146,113.5242 293.2096,113.8848 301.5342,114.3189 310.104,114.8726 318.5235,115.587 326.4047,116.4986 333.3868,117.639 339.1529,119.0348 343.446,120.7081 346.0813,122.6754 346.9548,124.9478 346.0492,127.5305 343.434,130.4216 339.2632,133.6122 333.767,137.085 327.2416,140.8138 320.0347,144.7626 312.5288,148.8851 305.1226,153.1241 298.2118,157.4111 292.1693,161.6662 287.3272,165.7977 283.9592,169.703 282.2661,173.2683 282.3638,176.3697 284.2737,178.8731 287.9162,180.6355 293.106,181.506 299.5483,181.3286 306.8344,179.9487 314.4362,177.2285 321.7012,173.0795 327.8625,167.5279 332.8205,161.3191 336.5231,155.0654 338.5152,149.0579 338.9495,143.9151 338.1662,140.1611 336.6194,138.1648 334.795,138.1138 333.1409,140.0196 332.0191,143.7432 331.6812,149.0289 384.32,177.0186 385.7802,182.9649 385.9012,187.8304 384.5735,191.2759 384.7704,192.6803 383.3145,192.4473 381.3135,190.3592 379.1064,186.4282 377.1912,180.7841 376.2486,173.7496 377.0943,165.97 380.4392,158.5352 386.4101,152.8495 394.1889,150.0278 402.3305,150.2338 409.5294,152.7096 415.0348,156.3677 418.5687,160.2644 420.1093,163.7448 419.7485,166.4126 417.6316,168.0662 413.9389,168.6476 408.8818,168.2071 402.7015,166.8792 395.6667,164.8631 388.0689,162.4061 380.215,159.787 372.4201,157.2994 364.9989,155.2357 358.2589,153.87 352.4948,153.4411 347.9872,154.134 345.0056,156.0556 343.8153,159.1988 344.681,163.3797 347.839,168.1329 353.3711,172.5768 360.9048,175.3918 369.28,175.2267 376.7526,171.5575 381.9379,165.1195 384.4949,157.3075 384.8975,149.3748 383.8899,142.158 382.1665,136.1561 380.2781,131.6591 378.6344,128.8277 377.5274,127.7295 377.1522,128.3536 377.6228,130.6163 378.9825,134.3656 381.2141,139.387 383.3877,145.7163 386.718,152.5844 390.8646,159.688 395.5337,166.7045 400.4564,173.3075 405.3855,179.1817 410.0986,184.0381 414.403,187.6288 418.142,189.7588 421.1994,190.2968 423.5037,189.1813 425.0297,186.4246 425.7986,182.1127 425.8756,176.4017 425.3657,169.511 424.4073,161.7133 423.1648,153.3224 421.8193,144.6784 420.5588,136.1326 419.5687,128.0305 419.0212,120.6968 419.0665,114.4192 419.8251,109.436 421.3805,105.9247 423.7755,103.9937 427.0093,103.6779 431.0371,104.9364 435.7723,107.6553 441.0908,111.6529 446.8366,116.6882 452.83,122.4724 458.8769,128.6825 464.7779,134.9766 470.3395,141.0097 475.3839,146.4498 479.7588,150.9936 483.3462,154.3801 486.0693,156.4028 487.8992,156.9185 488.8584,155.8542 489.0241,153.2091 488.5303,149.0548 487.57,143.5315 486.4006,136.8429 485.3548,129.2515 484.8648,121.083 485.5084,112.7558 488.0743,104.8881 488.9106,97.6034 495.9994,92.7415 505.9885,92.1504 516.3206,97.0601 523.3977,105.7757 525.8158,114.835 524.4105,122.0458 520.3973,126.8751 514.6423,129.5271 507.7158,130.3921 500.0407,129.8736 491.9788,128.3546 483.8663,126.1963 476.0227,123.7387 468.7483,121.2981 462.3154,119.1611 456.9587,117.577 452.8657,116.7502 450.1688,116.8332 448.9393,117.9214 449.1841,120.0501 450.8452,123.1948 453.8021,127.2726 457.8773,132.1484 462.8437,137.6421 468.4352,143.5387 474.3578,149.6001 480.3035,155.5777 485.9632,161.2263 491.0404,166.3175 495.2644,170.6523 498.4016,174.0734 500.2652,176.4747 500.7226,177.8102 499.7005,178.1001 497.1863,177.4357 493.2278,175.9834 487.9304,173.9903 481.4547,171.7921 474.0187,169.8302 465.9185,168.6803 457.5948,169.0892 449.7981,171.9653 443.8636,178.1141 441.7204,187.3511 444.6434,197.4668 451.449,205.3042 459.3877,209.3263 459.426,209.1179 465.4572,207.7829 469.7739,204.0559 472.5813,198.5478 474.1412,191.7199 474.7161,183.9754 474.5616,175.6998 473.9276,167.2719 473.0567,159.0608 472.1807,151.416 471.5146,144.6547 471.2501,139.0494 471.5487,134.8161 472.5356,132.1051 474.2956,130.9938 476.8698,131.484 480.2544,133.5016 484.4022,136.8998 489.2257,141.4668 494.6018,146.9352 500.3786,152.9948 506.3839,159.3073 512.4336,165.5223 518.3418,171.2935 523.9298,176.2956 529.0359,180.2392 533.5229,182.8847 537.2857,184.0537 540.2561,183.6372 542.4061,181.6016 543.7496,177.9893 544.3412,172.9179 544.2733,166.5741 543.671,159.2054 542.6854,151.1085 541.4858,142.6158 540.2502,134.0799 539.156,125.8571 538.3701,118.2918 538.0391,111.7 538.2813,106.3553 539.1784,102.4768 540.7701,100.2197 543.0485,99.6692 545.955,100.8374 549.3773,103.665 553.1451,108.0257 557.0227,113.7345 559.0506,120.9756 562.3664,128.4585 565.4824,136.2003 568.2517,143.8251 570.5359,150.9625 572.2135,157.2634 573.1891,162.4144 573.4035,166.1496 572.8444,168.2585 571.5614,168.5918 569.6866,167.0639 567.4688,163.6586 565.3251,158.4509 563.9085,151.6776 564.1264,143.9026 566.9223,136.2475 572.6298,130.3338 580.3822,127.4703 588.5605,127.724 595.8367,130.1052 601.555,133.4197 605.5039,136.7592 607.6562,139.5597 608.0468,141.521 606.7402,142.5285 603.8291,142.602 599.4434,141.863 593.7563,140.5096 586.9898,138.7951 579.4152,137.0059 571.3515,135.4366 563.1603,134.3645 555.2357,134.0206 547.9908,134.5615 541.8369,136.041 537.156,138.3888 534.2657,141.3987 533.3797,144.7341 534.5691,147.9569 537.7353,150.5808 542.6051,152.1441 548.7564,152.2879 555.6716,150.8189 562.808,147.743 569.6666,143.2611 575.8449,137.7329 581.0645,131.6234 585.1754,125.4443 588.8462,120.1604 592.8838,116.718 596.0853,114.5966 598.2703,113.8751 599.3245,114.5767 599.2034,116.6679 597.9321,120.0593 595.6021,124.6092 592.3649,130.1287 588.4223,136.389 584.0147,143.1309 579.408,150.0752 574.8784,156.9344 570.698,163.4246 567.1199,169.2781 564.3653,174.2546 562.6114,178.1523 561.983,180.8171 562.546,182.1494 564.3042,182.1096 567.2,180.7201 571.1179,178.0655 575.8908,174.2893 581.31,169.5884 587.1362,164.2049 593.1132,158.4159 598.9816,152.5215 604.4928,146.8314 609.4232,141.6508 613.5851,137.2663 616.8379,133.9321 619.0945,131.858 620.3258,131.1979 620.5617,132.0416 619.8886,134.4088 618.4432,138.2466 616.4039,143.4294 613.9792,149.7631 611.3945,156.9924 608.8775,164.8109 606.6434,172.8747 604.8808,180.8172 603.7391,188.2674 603.3186,194.8672 603.6632,200.2905 604.7579,204.2607 606.5294,206.5665 608.8519,207.0756 609.2392,205.2834 612.32,202.2742 615.317,197.5993 618.1042,191.5139 620.5974,184.3416 622.753,176.4557 624.5643,168.2597 626.0568,160.1667 627.2819,152.5795 628.3102,145.8715 629.2236,140.3691 630.1083,136.3365 631.0482,133.9645 632.1181,133.3614 633.3792,134.549 634.875,137.4618 636.6288,141.9513 638.6428,147.7932 640.8983,154.6984 643.3579,162.3271 645.9678,170.3056 648.6627,178.2435 651.3697,185.7531 654.0135,192.467 656.5218,198.0564 658.8302,202.2461 660.8861,204.8275 662.6529,205.6688 664.112,204.7206 665.2643,202.019 666.1306,197.6834 666.7499,191.9107 667.1771,184.9666 667.4795,177.1726 667.7321,168.8912 668.0126,160.5088 668.3956,152.4177 668.9472,144.9976 669.7189,138.5979 670.7431,133.5215 672.0289,130.0101 673.5582,128.2331 675.2842,128.2792 677.13,130.1517 678.9894,133.7667 680.7275,138.9559 682.1838,145.4706 683.1751,152.9884 682.5122,161.0154 682.4053,169.3295 681.2948,177.36 679.1407,184.6004 676.0144,190.5527 672.1335,194.7709 667.8853,196.921 663.823,196.8576 660.6099,194.6979 658.9034,190.8553 659.2035,185.9944 661.7279,180.8983 666.3702,176.2953 672.7535,172.7171 680.3383,170.4377 688.5306,169.4879 696.7588,169.7145 704.5165,170.8503 711.3803,172.5746 717.0139,174.5607 721.1671,176.5089 723.6723,178.1698 724.4409,179.3588 723.46,179.9661 720.7875,179.961 716.5472,179.3931 710.9231,178.3908 704.154,177.1569 696.5284,175.9626 688.3839,175.1395 680.1124,175.067 672.177,176.1507 665.1429,178.7734 659.7105,183.1883 656.6969,189.3131 656.8385,196.4536 660.3281,203.2013 666.3761,207.8853 673.4152,209.4172 679.9084,207.696 684.9357,203.2938 688.2114,196.9766 689.8417,189.4506 690.1126,181.3076 689.3714,173.0429 687.9718,165.0805 686.2491,157.7872 684.5088,151.4761 682.9587,146.4239 681.0707,143.0798 679.9072,141.3044 679.658,141.1076 762.8793,177.6562 763.0799,179.6116 762.5324,179.8688 761.4435,178.3478 761.0672,174.9849 760.3433,170.0823 828.3227,169.9633 825.7214,162.8347 822.2472,157.023 818.2956,152.883 816.4918,149.3917 812.4777,149.1467 809.7994,150.5476 808.848,153.1951 809.7844,156.6863 812.581,160.6568 817.065,164.7953 882.4566,150.0749 880.9383,150.0043 877.6772,149.6458"/>
  </g>
</svg>
